<svg width="24" height="24" viewBox="0 0 24 24" fill="none" xmlns="http://www.w3.org/2000/svg">
<path d="M12 9.9375C9.28594 9.9375 7.07812 12.1453 7.07812 14.8594C7.07812 17.5734 9.28594 19.7812 12 19.7812C14.7141 19.7812 16.9219 17.5734 16.9219 14.8594C16.9219 12.1453 14.7141 9.9375 12 9.9375ZM14.8125 15.5625H12C11.6119 15.5625 11.2969 15.2475 11.2969 14.8594V12.0469C11.2969 11.6588 11.6119 11.3438 12 11.3438C12.3881 11.3438 12.7031 11.6588 12.7031 12.0469V14.1562H14.8125C15.2006 14.1562 15.5156 14.4713 15.5156 14.8594C15.5156 15.2475 15.2006 15.5625 14.8125 15.5625Z" fill="#F4B400"/>
<path d="M14.1094 0.703125C14.1094 0.315 13.7944 0 13.4062 0C11.7778 0 11.1389 2.14125 10.6289 3.69469C10.2722 4.78078 9.73313 6.42188 9.1875 6.42188C8.76188 6.42188 8.48672 5.17219 8.48438 4.3125C8.48438 3.66656 7.68281 3.36328 7.25484 3.84656C5.03156 6.35812 2.85938 10.7489 2.85938 14.8594C2.85938 19.8586 6.92391 24 12 24C17.04 24 21.1406 19.8994 21.1406 14.8594C21.1406 8.98031 14.1094 4.53984 14.1094 0.703125ZM12 21.1875C8.51062 21.1875 5.67188 18.3488 5.67188 14.8594C5.67188 11.37 8.51062 8.53125 12 8.53125C15.4894 8.53125 18.3281 11.37 18.3281 14.8594C18.3281 18.3488 15.4894 21.1875 12 21.1875Z" fill="#F4B400"/>
</svg>
