<svg width="72" height="72" viewBox="0 0 72 72" fill="none" xmlns="http://www.w3.org/2000/svg">
<rect width="72" height="72" rx="36" fill="white"/>
<path d="M37.5099 16.6094C37.5099 16.2116 37.3518 15.83 37.0705 15.5487C36.7892 15.2674 36.4077 15.1094 36.0099 15.1094C35.612 15.1094 35.2305 15.2674 34.9492 15.5487C34.6679 15.83 34.5099 16.2116 34.5099 16.6094V19.5694C34.5099 19.9672 34.6679 20.3487 34.9492 20.63C35.2305 20.9113 35.612 21.0694 36.0099 21.0694C36.4077 21.0694 36.7892 20.9113 37.0705 20.63C37.3518 20.3487 37.5099 19.9672 37.5099 19.5694V16.6094ZM47.7319 32.5894C47.3151 30.9687 46.5583 29.4552 45.5119 28.1494C44.4744 26.8344 43.1732 25.7512 41.6919 24.9694C40.2142 24.1938 38.5952 23.7244 36.9319 23.5894C35.2638 23.4641 33.5879 23.6889 32.0119 24.2494C30.4271 24.802 28.9758 25.6809 27.7519 26.8294C26.5411 27.9584 25.5686 29.3185 24.8919 30.8294C24.2305 32.3635 23.8967 34.0188 23.9119 35.6894C23.8655 37.6189 24.2784 39.5318 25.1164 41.2704C25.9544 43.0091 27.1936 44.5237 28.7319 45.6894L29.4319 46.3494C30.0319 46.9694 30.0319 46.9694 30.0119 48.3494V48.9894C29.9878 49.4319 30.0559 49.8746 30.2119 50.2894C30.3519 50.7334 30.5999 51.1394 30.9319 51.4694C31.0839 51.6254 31.2505 51.7654 31.4319 51.8894V53.8894C31.399 54.2521 31.4381 54.6177 31.5472 54.9652C31.6562 55.3127 31.833 55.6352 32.0672 55.9141C32.3015 56.193 32.5886 56.4227 32.9121 56.5901C33.2355 56.7575 33.5889 56.8592 33.9519 56.8894H37.9519C38.6865 56.8283 39.3667 56.4779 39.843 55.9153C40.3194 55.3527 40.5527 54.624 40.4919 53.8894V51.8894C40.6724 51.7668 40.84 51.6261 40.9919 51.4694C41.3059 51.1374 41.5459 50.7414 41.6919 50.3094C41.8451 49.8869 41.9131 49.4383 41.8919 48.9894V48.2494C41.8919 47.1494 41.8919 47.1494 42.5119 46.4494L43.2719 45.7494C45.836 43.7551 47.5105 40.8303 47.9319 37.6094C48.2263 35.9411 48.1581 34.229 47.7319 32.5894ZM37.5919 53.8494H34.4319V52.5894H37.5919V53.8494ZM36.0119 32.7294C35.3594 32.7294 34.7337 32.9886 34.2724 33.4499C33.8111 33.9112 33.5519 34.5369 33.5519 35.1894C33.5519 35.7198 33.3412 36.2285 32.9661 36.6036C32.591 36.9787 32.0823 37.1894 31.5519 37.1894C31.0214 37.1894 30.5127 36.9787 30.1377 36.6036C29.7626 36.2285 29.5519 35.7198 29.5519 35.1894C29.5466 34.3396 29.71 33.4971 30.0328 32.711C30.3556 31.9248 30.8312 31.2106 31.4321 30.6096C32.0331 30.0087 32.7473 29.5331 33.5335 29.2103C34.3196 28.8875 35.1621 28.7241 36.0119 28.7294C36.5423 28.7294 37.051 28.9401 37.4261 29.3152C37.8012 29.6902 38.0119 30.1989 38.0119 30.7294C38.0119 31.2598 37.8012 31.7685 37.4261 32.1436C37.051 32.5187 36.5423 32.7294 36.0119 32.7294ZM54.3319 37.7294H50.6719C50.2741 37.7294 49.8925 37.5713 49.6112 37.29C49.3299 37.0087 49.1719 36.6272 49.1719 36.2294C49.1719 35.8315 49.3299 35.45 49.6112 35.1687C49.8925 34.8874 50.2741 34.7294 50.6719 34.7294H54.3319C54.7297 34.7294 55.1112 34.8874 55.3925 35.1687C55.6738 35.45 55.8319 35.8315 55.8319 36.2294C55.8319 36.6272 55.6738 37.0087 55.3925 37.29C55.1112 37.5713 54.7297 37.7294 54.3319 37.7294ZM46.9719 25.7094C46.7748 25.7103 46.5795 25.6719 46.3975 25.5963C46.2155 25.5208 46.0504 25.4096 45.9119 25.2694C45.631 24.9881 45.4732 24.6069 45.4732 24.2094C45.4732 23.8119 45.631 23.4306 45.9119 23.1494L48.5119 20.5494C48.7962 20.2844 49.1723 20.1402 49.5609 20.147C49.9495 20.1539 50.3203 20.3113 50.5951 20.5861C50.8699 20.861 51.0274 21.2317 51.0342 21.6203C51.0411 22.0089 50.8968 22.385 50.6319 22.6694L48.0319 25.2694C47.8941 25.4105 47.7291 25.5223 47.5469 25.5979C47.3647 25.6735 47.1691 25.7114 46.9719 25.7094ZM51.5719 50.5894C51.1763 50.5788 50.7986 50.4221 50.5119 50.1494L47.9119 47.5494C47.7361 47.3752 47.6062 47.1602 47.5337 46.9237C47.4612 46.6871 47.4483 46.4363 47.4962 46.1936C47.5442 45.9508 47.6514 45.7237 47.8083 45.5324C47.9653 45.3412 48.1671 45.1917 48.3959 45.0974C48.6703 44.9817 48.9733 44.9515 49.2652 45.0107C49.557 45.0699 49.8242 45.2159 50.0319 45.4294L52.6319 48.0294C52.7734 48.1673 52.8859 48.3321 52.9627 48.5141C53.0394 48.6962 53.079 48.8918 53.079 49.0894C53.079 49.287 53.0394 49.4825 52.9627 49.6646C52.8859 49.8467 52.7734 50.0115 52.6319 50.1494C52.3508 50.4308 51.9696 50.589 51.5719 50.5894ZM25.0719 25.7094C24.6742 25.709 24.2929 25.5508 24.0119 25.2694L21.4119 22.6694C21.1307 22.3856 20.9739 22.0018 20.9757 21.6023C20.9776 21.2029 21.1381 20.8205 21.4219 20.5394C21.7057 20.2582 22.0895 20.1014 22.4889 20.1032C22.8884 20.1051 23.2707 20.2656 23.5519 20.5494L26.1319 23.1494C26.3414 23.3591 26.484 23.6263 26.5418 23.9171C26.5996 24.2079 26.5699 24.5093 26.4564 24.7832C26.343 25.0571 26.151 25.2913 25.9045 25.4562C25.6581 25.621 25.3684 25.7091 25.0719 25.7094ZM20.4919 50.5894C20.2941 50.5951 20.0974 50.5588 19.9147 50.483C19.732 50.4071 19.5674 50.2934 19.4319 50.1494C19.151 49.8681 18.9932 49.4869 18.9932 49.0894C18.9932 48.6919 19.151 48.3106 19.4319 48.0294L22.0319 45.4294C22.3162 45.1644 22.6923 45.0202 23.0809 45.027C23.4695 45.0339 23.8403 45.1913 24.1151 45.4661C24.3899 45.741 24.5474 46.1117 24.5542 46.5003C24.5611 46.8889 24.4168 47.265 24.1519 47.5494L21.5719 50.1694C21.277 50.4394 20.8917 50.5892 20.4919 50.5894ZM21.3319 37.7294H17.6719C17.2741 37.7294 16.8925 37.5713 16.6112 37.29C16.3299 37.0087 16.1719 36.6272 16.1719 36.2294C16.1719 35.8315 16.3299 35.45 16.6112 35.1687C16.8925 34.8874 17.2741 34.7294 17.6719 34.7294H21.3319C21.7297 34.7294 22.1112 34.8874 22.3925 35.1687C22.6738 35.45 22.8319 35.8315 22.8319 36.2294C22.8319 36.6272 22.6738 37.0087 22.3925 37.29C22.1112 37.5713 21.7297 37.7294 21.3319 37.7294Z" fill="#0F5593"/>
</svg>
