<svg width="36" height="36" viewBox="0 0 36 36" fill="none" xmlns="http://www.w3.org/2000/svg">
<g clip-path="url(#clip0_5879_6314)">
<path d="M34.6154 11.0769H1.38462C1.01739 11.0769 0.66521 10.931 0.405544 10.6714C0.145879 10.4117 0 10.0595 0 9.69231V4.15385C0 3.05218 0.437636 1.99563 1.21663 1.21663C1.99563 0.437636 3.05218 0 4.15385 0H31.8462C32.9478 0 34.0044 0.437636 34.7834 1.21663C35.5624 1.99563 36 3.05218 36 4.15385V9.69231C36 10.0595 35.8541 10.4117 35.5945 10.6714C35.3348 10.931 34.9826 11.0769 34.6154 11.0769ZM2.76923 8.30769H33.2308V4.15385C33.2308 3.78662 33.0849 3.43444 32.8252 3.17478C32.5656 2.91511 32.2134 2.76923 31.8462 2.76923H4.15385C3.78662 2.76923 3.43444 2.91511 3.17478 3.17478C2.91511 3.43444 2.76923 3.78662 2.76923 4.15385V8.30769Z" fill="#0F5593"/>
<path d="M20.7688 6.92353H15.2303C14.8631 6.92353 14.5109 6.77765 14.2512 6.51798C13.9916 6.25832 13.8457 5.90614 13.8457 5.53891C13.8457 5.17169 13.9916 4.81951 14.2512 4.55984C14.5109 4.30018 14.8631 4.1543 15.2303 4.1543H20.7688C21.136 4.1543 21.4882 4.30018 21.7479 4.55984C22.0075 4.81951 22.1534 5.17169 22.1534 5.53891C22.1534 5.90614 22.0075 6.25832 21.7479 6.51798C21.4882 6.77765 21.136 6.92353 20.7688 6.92353Z" fill="#0F5593"/>
<path d="M17.9993 15.2305C16.63 15.2305 15.2915 15.6365 14.153 16.3972C13.0145 17.1579 12.1272 18.2392 11.6032 19.5042C11.0792 20.7692 10.9421 22.1612 11.2092 23.5042C11.4763 24.8471 12.1357 26.0807 13.1039 27.0489C14.0721 28.0171 15.3057 28.6765 16.6486 28.9436C17.9916 29.2107 19.3836 29.0736 20.6486 28.5496C21.9136 28.0256 22.9949 27.1383 23.7556 25.9998C24.5163 24.8613 24.9223 23.5228 24.9223 22.1535C24.9201 20.3181 24.19 18.5585 22.8922 17.2606C21.5943 15.9628 19.8347 15.2327 17.9993 15.2305ZM23.132 20.3632L17.5936 25.9017C17.3339 26.1613 16.9818 26.3071 16.6146 26.3071C16.2475 26.3071 15.8954 26.1613 15.6357 25.9017L12.8665 23.1325C12.6143 22.8713 12.4747 22.5216 12.4779 22.1585C12.481 21.7955 12.6266 21.4482 12.8833 21.1915C13.1401 20.9348 13.4873 20.7892 13.8504 20.786C14.2134 20.7828 14.5632 20.9224 14.8243 21.1746L16.6146 22.9649L21.1742 18.4054C21.4353 18.1532 21.7851 18.0136 22.1481 18.0168C22.5112 18.0199 22.8584 18.1655 23.1152 18.4223C23.3719 18.679 23.5175 19.0263 23.5206 19.3893C23.5238 19.7523 23.3842 20.1021 23.132 20.3632Z" fill="#0F5593"/>
<path d="M34.6154 8.30762H1.38462C1.01739 8.30762 0.66521 8.4535 0.405544 8.71316C0.145879 8.97283 0 9.32501 0 9.69223V31.8461C0 32.9477 0.437636 34.0043 1.21663 34.7833C1.99563 35.5623 3.05218 35.9999 4.15385 35.9999H31.8462C32.9478 35.9999 34.0044 35.5623 34.7834 34.7833C35.5624 34.0043 36 32.9477 36 31.8461V9.69223C36 9.32501 35.8541 8.97283 35.5945 8.71316C35.3348 8.4535 34.9826 8.30762 34.6154 8.30762ZM18 31.8461C16.083 31.8461 14.2091 31.2776 12.6152 30.2126C11.0214 29.1476 9.77906 27.6339 9.04548 25.8629C8.31189 24.0918 8.11995 22.143 8.49393 20.2629C8.86791 18.3828 9.79101 16.6558 11.1465 15.3003C12.502 13.9448 14.229 13.0217 16.1091 12.6477C17.9892 12.2737 19.938 12.4657 21.7091 13.1992C23.4801 13.9328 24.9939 15.1751 26.0589 16.769C27.1239 18.3629 27.6923 20.2368 27.6923 22.1538C27.689 24.7233 26.6668 27.1867 24.8499 29.0036C23.0329 30.8206 20.5695 31.8428 18 31.8461Z" fill="#0F5593"/>
</g>
<defs>
<clipPath id="clip0_5879_6314">
<rect width="36" height="36" fill="white"/>
</clipPath>
</defs>
</svg>
