<svg width="36" height="36" viewBox="0 0 36 36" fill="none" xmlns="http://www.w3.org/2000/svg">
<path d="M25.3983 4.48438H5.5168C3.59456 4.48438 2.03906 6.04663 2.03906 7.96891V18.8436C2.03906 19.8081 2.42624 20.6776 3.05793 21.3093C3.68282 21.9409 4.55228 22.3281 5.5168 22.3281C5.74776 22.3281 5.92437 22.5319 5.89037 22.7696L5.30623 26.5191C5.24512 26.8859 5.67981 27.1032 5.93792 26.8451L10.4413 22.4368C10.516 22.3689 10.6043 22.3281 10.7062 22.3281H25.3983C27.3206 22.3281 28.8829 20.7727 28.8829 18.8436V7.96891C28.8829 6.04663 27.3206 4.48438 25.3983 4.48438ZM9.99984 13.1108L9.03528 14.0481C8.95377 14.1296 8.91302 14.2519 8.93342 14.3674L9.16434 15.6919C9.21189 15.9772 8.90622 16.2014 8.64811 16.0655L7.45267 15.4406C7.35077 15.3863 7.22851 15.3863 7.1266 15.4406L5.92437 16.0655C5.66625 16.2014 5.36058 15.984 5.41493 15.6919L5.63905 14.3674C5.65945 14.2519 5.6187 14.1364 5.53719 14.0549L4.57263 13.1108C4.36207 12.9002 4.47757 12.547 4.76964 12.4995L6.10094 12.3093C6.21644 12.2957 6.3183 12.2209 6.37265 12.1191L6.97039 10.9032C7.09945 10.6383 7.47982 10.6383 7.60888 10.9032L8.19982 12.1191C8.25417 12.2209 8.35604 12.2957 8.47154 12.3093L9.80283 12.4995C10.0949 12.547 10.2104 12.9002 9.99984 13.1108ZM18.1711 13.1108L17.2066 14.0481C17.1251 14.1296 17.0844 14.2519 17.1047 14.3674L17.3357 15.6919C17.3832 15.9772 17.0844 16.2014 16.8194 16.0655L15.624 15.4406C15.5221 15.3863 15.3998 15.3863 15.2979 15.4406L14.1025 16.0655C13.8376 16.2014 13.5387 15.984 13.5862 15.6919L13.8104 14.3674C13.8308 14.2519 13.79 14.1364 13.7085 14.0549L12.744 13.1108C12.5334 12.9002 12.6489 12.547 12.9409 12.4995L14.2723 12.3093C14.3877 12.2957 14.4896 12.2209 14.544 12.1191L15.1417 10.9032C15.2707 10.6383 15.6512 10.6383 15.7802 10.9032L16.3712 12.1191C16.4255 12.2209 16.5274 12.2957 16.6428 12.3093L17.9742 12.4995C18.2662 12.547 18.3817 12.9002 18.1711 13.1108ZM26.3425 13.1108L25.3779 14.0481C25.2964 14.1296 25.2625 14.2519 25.2829 14.3674L25.507 15.6919C25.5613 15.9772 25.2557 16.2014 24.9908 16.0655L23.8021 15.4406C23.6934 15.3863 23.5711 15.3863 23.4692 15.4406L22.2738 16.0655C22.0157 16.2014 21.71 15.984 21.7576 15.6919L21.9817 14.3674C22.0021 14.2519 21.9613 14.1364 21.8798 14.0549L20.9153 13.1108C20.7047 12.9002 20.8202 12.547 21.1123 12.4995L22.4504 12.3093C22.5659 12.2957 22.6609 12.2209 22.7153 12.1191L23.313 10.9032C23.4489 10.6383 23.8225 10.6383 23.9515 10.9032L24.5493 12.1191C24.5968 12.2209 24.6987 12.2957 24.8142 12.3093L26.1455 12.4995C26.4375 12.547 26.553 12.9002 26.3425 13.1108Z" fill="#0F5593"/>
<path d="M33.9622 12.5275V23.409C33.9622 24.3735 33.5682 25.243 32.9433 25.8747C32.3116 26.4996 31.4354 26.8868 30.4777 26.8868C30.2467 26.8868 30.0701 27.0973 30.1109 27.3283L30.6882 31.0777C30.7494 31.4445 30.3147 31.6619 30.0565 31.4105L25.5531 26.9954C25.4784 26.9343 25.3901 26.8868 25.2882 26.8868H10.5962C9.82183 26.8868 9.10863 26.6354 8.53125 26.2075L11.1056 23.6875H25.3969C28.0664 23.6875 30.2399 21.5139 30.2399 18.8445V9.04297H30.4777C32.3999 9.04297 33.9622 10.5985 33.9622 12.5275Z" fill="#0F5593"/>
</svg>
