<svg width="72" height="72" viewBox="0 0 72 72" fill="none" xmlns="http://www.w3.org/2000/svg">
<rect width="72" height="72" rx="36" fill="#875DDD" fill-opacity="0.1"/>
<path d="M57 47.8803V51.0153C57 54.2373 54.387 56.8503 51.165 56.8503H20.835C17.613 56.8503 15 54.2373 15 51.0153V47.8803C15 47.2263 15.531 46.6953 16.185 46.6953H28.1595C29.0205 46.6953 29.799 47.2098 30.138 48.0018L30.477 48.7953C30.816 49.5873 31.5945 50.1018 32.4555 50.1018H39.546C40.407 50.1018 41.1855 49.5873 41.5245 48.7953L41.8635 48.0018C42.2025 47.2098 42.981 46.6953 43.842 46.6953H55.8165C56.469 46.6953 57 47.2248 57 47.8803Z" fill="#875DDD" fill-opacity="0.2"/>
<path d="M54.0797 24.6787V46.6987H43.8587C42.9947 46.6987 42.2132 47.2118 41.8697 48.0037L41.5247 48.7988C41.1947 49.5788 40.4147 50.1038 39.5447 50.1038H32.4647C31.5947 50.1038 30.8147 49.5788 30.4847 48.7988L30.1397 48.0037C29.7962 47.2118 29.0147 46.6987 28.1507 46.6987H17.9297V24.6787C17.9297 22.9057 19.3667 21.4688 21.1397 21.4688H50.8697C52.6427 21.4688 54.0797 22.9057 54.0797 24.6787Z" fill="#875DDD" fill-opacity="0.2"/>
<path d="M30.5625 19.7288V23.6048C30.5625 26.1323 32.6115 28.1813 35.139 28.1813H39.75L43.0365 31.7378C43.44 32.1758 44.1315 32.1758 44.535 31.7378L47.8215 28.1813H52.4325C54.96 28.1813 57.009 26.1323 57.009 23.6048V19.7288C57.009 17.2013 54.96 15.1523 52.4325 15.1523H35.1375C32.6115 15.1538 30.5625 17.2013 30.5625 19.7288Z" fill="#875DDD" fill-opacity="0.2"/>
<path d="M55.8212 45.3436H55.4312V33.2761C55.4312 32.5306 54.8267 31.9261 54.0812 31.9261C53.3357 31.9261 52.7312 32.5306 52.7312 33.2761V45.3436H43.8467C42.4427 45.3436 41.1782 46.1791 40.6277 47.4691L40.2887 48.2626C40.1627 48.5566 39.8732 48.7471 39.5522 48.7471H32.4617C32.1407 48.7471 31.8512 48.5566 31.7252 48.2626L31.3862 47.4691C30.8357 46.1791 29.5712 45.3436 28.1672 45.3436H19.2812V24.6796C19.2812 23.6536 20.1152 22.8211 21.1412 22.8211H25.3112C26.0567 22.8211 26.6612 22.2166 26.6612 21.4711C26.6612 20.7256 26.0567 20.1211 25.3112 20.1211H21.1412C18.6273 20.1211 16.5812 22.1671 16.5812 24.6811V45.3436H16.1912C14.7932 45.3436 13.6562 46.4821 13.6562 47.8786V51.0136C13.6562 54.9751 16.8797 58.1986 20.8412 58.1986H51.1712C55.1327 58.1986 58.3562 54.9751 58.3562 51.0136V47.8786C58.3562 46.4806 57.2192 45.3436 55.8212 45.3436ZM55.6562 51.0136C55.6562 53.4856 53.6447 55.4971 51.1712 55.4971H20.8412C18.3677 55.4971 16.3562 53.4856 16.3562 51.0136V48.0451H28.1672C28.4882 48.0451 28.7777 48.2356 28.9037 48.5296L29.2427 49.3231C29.7947 50.6131 31.0577 51.4486 32.4617 51.4486H39.5522C40.9562 51.4486 42.2192 50.6131 42.7712 49.3231L43.1102 48.5296C43.2362 48.2356 43.5242 48.0451 43.8467 48.0451H55.6562V51.0136Z" fill="#875DDD"/>
<path d="M52.4231 13.8047H35.1296C31.8611 13.8047 29.2031 16.4627 29.2031 19.7312V23.6057C29.2031 26.8742 31.8611 29.5322 35.1296 29.5322H39.1496L42.0356 32.6552C42.4826 33.1382 43.1171 33.4157 43.7756 33.4157C44.4341 33.4157 45.0671 33.1382 45.5171 32.6537L48.4016 29.5322H52.4216C55.6886 29.5322 58.3466 26.8742 58.3466 23.6057V19.7312C58.3481 16.4642 55.6901 13.8047 52.4231 13.8047ZM55.6481 23.6057C55.6481 25.3847 54.2006 26.8307 52.4231 26.8307H47.8121C47.4356 26.8307 47.0756 26.9882 46.8206 27.2657L43.7771 30.5597L40.7336 27.2657C40.4786 26.9882 40.1186 26.8307 39.7421 26.8307H35.1311C33.3521 26.8307 31.9046 25.3832 31.9046 23.6057V19.7312C31.9046 17.9522 33.3521 16.5062 35.1311 16.5062H52.4231C54.2021 16.5062 55.6481 17.9537 55.6481 19.7312V23.6057Z" fill="#875DDD"/>
<path d="M38.4812 20.3203H38.0297C37.2842 20.3203 36.6797 20.9248 36.6797 21.6703C36.6797 22.4158 37.2842 23.0203 38.0297 23.0203H38.4812C39.2267 23.0203 39.8312 22.4158 39.8312 21.6703C39.8312 20.9248 39.2267 20.3203 38.4812 20.3203Z" fill="#875DDD"/>
<path d="M44.0046 20.3203H43.5531C42.8076 20.3203 42.2031 20.9248 42.2031 21.6703C42.2031 22.4158 42.8076 23.0203 43.5531 23.0203H44.0046C44.7501 23.0203 45.3546 22.4158 45.3546 21.6703C45.3546 20.9248 44.7501 20.3203 44.0046 20.3203Z" fill="#875DDD"/>
<path d="M49.5359 20.3203H49.0844C48.3389 20.3203 47.7344 20.9248 47.7344 21.6703C47.7344 22.4158 48.3389 23.0203 49.0844 23.0203H49.5359C50.2814 23.0203 50.8859 22.4158 50.8859 21.6703C50.8859 20.9248 50.2814 20.3203 49.5359 20.3203Z" fill="#875DDD"/>
</svg>
