<svg width="36" height="36" viewBox="0 0 36 36" fill="none" xmlns="http://www.w3.org/2000/svg">
<g clip-path="url(#clip0_5879_3002)">
<path d="M26.9102 13.0117L19.5859 19.3531L32.5111 30.5467C32.5411 30.4511 32.5574 30.3495 32.5574 30.2442V14.6489C32.112 14.7559 31.6478 14.8141 31.1701 14.8141C29.502 14.8141 27.9927 14.1226 26.9102 13.0117Z" fill="#0F5593"/>
<path d="M16.6489 21.8971C16.5433 21.9886 16.412 22.0343 16.2808 22.0343C16.1495 22.0343 16.0183 21.9886 15.9126 21.8971L13.8342 20.0977L0.953125 31.2517C0.971898 31.2528 0.990531 31.2546 1.00959 31.2546H16.2808H31.55C31.5692 31.2546 31.5879 31.2528 31.6068 31.2517L18.7273 20.0977L16.6489 21.8971Z" fill="#0F5593"/>
<path d="M0.0459141 8.16406C0.0161016 8.25934 0 8.36059 0 8.46563V30.2463C0 30.3513 0.0161016 30.4526 0.0458438 30.5479L12.9715 19.3552L0.0459141 8.16406Z" fill="#0F5593"/>
<path d="M26.204 12.1392C25.5785 11.1947 25.2131 10.0631 25.2131 8.84711C25.2131 8.36849 25.2712 7.90345 25.3779 7.45703H16.2807H1.00959C0.990531 7.45703 0.971969 7.45886 0.953125 7.45991L16.2807 20.7308L26.204 12.1392Z" fill="#0F5593"/>
<path d="M31.1685 4C28.5038 4 26.3359 6.17371 26.3359 8.84552C26.3359 11.5173 28.5039 13.691 31.1685 13.691C33.8332 13.691 36.0012 11.5173 36.0012 8.84552C36.0012 6.17371 33.8332 4 31.1685 4ZM32.1329 11.7252H30.2042C29.8936 11.7252 29.6417 11.4733 29.6417 11.1627C29.6417 10.852 29.8936 10.6002 30.2042 10.6002H30.606V7.9465C30.3923 8.16475 30.0422 8.17284 29.8187 7.96246C29.5925 7.74962 29.5817 7.39356 29.7946 7.1673L30.7589 6.14277C30.917 5.97487 31.1616 5.92045 31.3759 6.00545C31.5902 6.09046 31.731 6.29767 31.731 6.52837V10.6002H32.1329C32.4435 10.6002 32.6954 10.8521 32.6954 11.1627C32.6954 11.4734 32.4435 11.7252 32.1329 11.7252Z" fill="#0F5593"/>
</g>
<defs>
<clipPath id="clip0_5879_3002">
<rect width="36" height="36" fill="white"/>
</clipPath>
</defs>
</svg>
