<svg width="72" height="72" viewBox="0 0 72 72" fill="none" xmlns="http://www.w3.org/2000/svg">
<path d="M0 36C0 16.1178 16.1178 0 36 0C55.8823 0 72 16.1178 72 36C72 55.8823 55.8823 72 36 72C16.1178 72 0 55.8823 0 36Z" fill="white"/>
<path d="M46.5 54C44.85 54 43.35 52.95 42.75 51.3C42.75 51.15 42.75 51 42.6 51H29.25C29.25 51.15 29.25 51.3 29.1 51.3C28.65 52.95 27.15 54 25.5 54C24.6 54 24 54.6 24 55.5C24 56.4 24.6 57 25.5 57H46.5C47.4 57 48 56.4 48 55.5C48 54.6 47.4 54 46.5 54Z" fill="#0F5593"/>
<path d="M28.5 31.5V28.5C25.95 28.5 24 30.45 24 33C24 35.55 25.95 37.5 28.5 37.5C31.05 37.5 33 35.55 33 33H30C29.1 33 28.5 32.4 28.5 31.5Z" fill="#0F5593"/>
<path d="M52.5 16.5H19.5C16.95 16.5 15 18.45 15 21V43.5C15 46.05 16.95 48 19.5 48H29.85H42H52.5C55.05 48 57 46.05 57 43.5V21C57 18.45 55.05 16.5 52.5 16.5ZM36 33C36 37.2 32.7 40.5 28.5 40.5C24.3 40.5 21 37.2 21 33C21 28.8 24.3 25.5 28.5 25.5C28.5 24.6 29.1 24 30 24C34.2 24 37.5 27.3 37.5 31.5C37.5 32.4 36.9 33 36 33ZM49.5 36H46.5C45.6 36 45 35.4 45 34.5C45 33.6 45.6 33 46.5 33H49.5C50.4 33 51 33.6 51 34.5C51 35.4 50.4 36 49.5 36ZM49.5 31.5H42C41.1 31.5 40.5 30.9 40.5 30C40.5 29.1 41.1 28.5 42 28.5H49.5C50.4 28.5 51 29.1 51 30C51 30.9 50.4 31.5 49.5 31.5Z" fill="#0F5593"/>
</svg>
