<svg width="72" height="72" viewBox="0 0 72 72" fill="none" xmlns="http://www.w3.org/2000/svg">
<rect width="72" height="72" rx="36" fill="white"/>
<g clip-path="url(#clip0_5879_2110)">
<path d="M19.0296 19.0312L22.4232 22.4249C20.6382 24.2062 19.2226 26.3226 18.2576 28.6525C17.2927 30.9823 16.7973 33.4798 16.8 36.0017C16.8 41.3057 18.948 46.1056 22.4232 49.5785L19.0296 52.972C16.7978 50.7458 15.0279 48.1006 13.8215 45.1883C12.6152 42.2759 11.9961 39.1539 12 36.0017C11.9961 32.8494 12.6152 29.7274 13.8215 26.815C15.0279 23.9027 16.7978 21.2575 19.0296 19.0312ZM52.9704 19.0312C55.2022 21.2575 56.9722 23.9027 58.1785 26.815C59.3849 29.7274 60.0039 32.8494 60 36.0017C60.0039 39.1539 59.3849 42.2759 58.1785 45.1883C56.9722 48.1006 55.2022 50.7458 52.9704 52.972L49.5768 49.5785C51.3618 47.7971 52.7774 45.6807 53.7424 43.3508C54.7074 41.021 55.2027 38.5235 55.2 36.0017C55.2 30.6977 53.052 25.8977 49.5768 22.4249L52.9704 19.0312Z" fill="#0F5593"/>
<path d="M29.2144 29.2139C27.4139 31.0138 26.4021 33.4552 26.4016 36.0011C26.4016 38.6531 27.4768 41.0507 29.2144 42.7883L25.8208 46.1819C24.4814 44.8466 23.4191 43.2598 22.695 41.5126C21.971 39.7654 21.5994 37.8924 21.6016 36.0011C21.5994 34.1098 21.971 32.2368 22.695 30.4896C23.4191 28.7424 24.4814 27.1556 25.8208 25.8203L29.2144 29.2139ZM46.1824 25.8203C47.5218 27.1556 48.584 28.7424 49.3081 30.4896C50.0322 32.2368 50.4038 34.1098 50.4016 36.0011C50.4038 37.8924 50.0322 39.7654 49.3081 41.5126C48.584 43.2598 47.5218 44.8466 46.1824 46.1819L42.7888 42.7883C44.5892 40.9884 45.601 38.547 45.6016 36.0011C45.601 33.4552 44.5892 31.0138 42.7888 29.2139L46.1824 25.8203ZM36.0016 31.2011C37.2746 31.2011 38.4955 31.7068 39.3957 32.607C40.2959 33.5072 40.8016 34.7281 40.8016 36.0011C40.8016 37.2742 40.2959 38.4951 39.3957 39.3952C38.4955 40.2954 37.2746 40.8011 36.0016 40.8011C34.7285 40.8011 33.5076 40.2954 32.6075 39.3952C31.7073 38.4951 31.2016 37.2742 31.2016 36.0011C31.2016 34.7281 31.7073 33.5072 32.6075 32.607C33.5076 31.7068 34.7285 31.2011 36.0016 31.2011Z" fill="#0F5593"/>
</g>
<defs>
<clipPath id="clip0_5879_2110">
<rect width="48" height="48" fill="white" transform="translate(12 12)"/>
</clipPath>
</defs>
</svg>
