<svg width="36" height="36" viewBox="0 0 36 36" fill="none" xmlns="http://www.w3.org/2000/svg">
<g clip-path="url(#clip0_5879_4803)">
<path d="M4.14985 23.999L0.244207 33.0534C-0.0930731 33.8359 0.0590875 34.7085 0.641363 35.3306C1.0517 35.7687 1.59965 36.0019 2.16874 36.0019C2.40742 36.0019 2.65021 35.9607 2.88752 35.8763L8.83332 33.7628L4.14985 23.999Z" fill="#0F5593"/>
<path d="M7.8558 15.4072L5.25781 21.4308L10.8323 33.0518L15.5204 31.3855L7.8558 15.4072Z" fill="#0F5593"/>
<path d="M33.9966 7.04694C33.4198 7.12961 33.0194 7.66382 33.1021 8.24033C33.1323 8.45264 33.157 8.65891 33.179 8.86243C33.4297 11.1893 33.1293 12.9532 32.2624 14.2378C31.3193 15.635 29.5708 16.4545 27.9116 16.2768C27.5238 16.2351 27.142 16.1392 26.7772 15.9967C26.844 15.8816 26.9058 15.7638 26.9624 15.6437C27.2675 14.9977 27.3941 14.2542 27.3447 13.5162C27.3068 12.9532 27.1667 12.3937 26.9236 11.8826C26.4389 10.863 25.6226 10.166 24.6247 9.91959C23.5239 9.64795 22.3102 10.3796 21.9188 11.5505C21.6634 12.3146 21.7307 13.1886 22.1188 14.148C22.4412 14.9453 22.9133 15.6652 23.4948 16.2766C22.9697 16.5564 22.3522 16.7597 21.6735 16.8668C21.0981 16.9577 20.7054 17.4977 20.7963 18.0731C20.8781 18.5927 21.3266 18.9633 21.8367 18.9633C21.8913 18.9633 21.9468 18.9591 22.0023 18.9503C23.2627 18.7512 24.3891 18.2901 25.2828 17.6328C26.0255 18.0259 26.8404 18.2832 27.6869 18.3738C27.9173 18.3986 28.1475 18.4106 28.3777 18.4106C30.5955 18.4106 32.7519 17.2826 34.0106 15.4177C35.2595 13.5673 35.6451 11.1218 35.19 7.9415C35.1073 7.36499 34.5726 6.96427 33.9966 7.04694ZM23.9194 12.219C23.9623 12.091 24.0806 11.9913 24.1386 11.9727C24.6283 12.1031 24.8997 12.5382 25.0186 12.7884C25.3111 13.4034 25.3254 14.1707 25.0551 14.7434C25.0441 14.7668 25.0326 14.7901 25.0208 14.8132C24.619 14.391 24.2927 13.8977 24.0743 13.3572C23.8826 12.8832 23.8291 12.4896 23.9194 12.219Z" fill="#0F5593"/>
<path d="M28.3518 22.4077C28.3518 21.6749 27.7646 21.0811 27.0403 21.0811C26.3157 21.0811 25.7285 21.6749 25.7285 22.4077C25.7285 23.1402 26.3157 23.734 27.0403 23.734C27.7646 23.734 28.3518 23.1402 28.3518 22.4077Z" fill="#0F5593"/>
<path d="M30.3108 8.10269C30.3108 7.37018 29.7235 6.77637 28.999 6.77637C28.2747 6.77637 27.6875 7.37018 27.6875 8.10269C27.6875 8.83521 28.2747 9.42902 28.999 9.42902C29.7235 9.42902 30.3108 8.83521 30.3108 8.10269Z" fill="#0F5593"/>
<path d="M32.952 6.00528C34.5942 6.00528 35.9304 4.65863 35.9304 3.00327C35.9304 1.34763 34.5945 0.000976562 32.952 0.000976562C31.3096 0.000976562 29.9736 1.34763 29.9736 3.00327C29.9736 4.65863 31.3098 6.00528 32.952 6.00528Z" fill="#0F5593"/>
<path d="M18.9778 12.6349C18.9778 11.9024 18.3905 11.3086 17.666 11.3086C16.9417 11.3086 16.3545 11.9024 16.3545 12.6349C16.3545 13.3674 16.9417 13.9612 17.666 13.9612C18.3905 13.9612 18.9778 13.3674 18.9778 12.6349Z" fill="#0F5593"/>
<path d="M25.814 2.83414C25.814 2.10162 25.2265 1.50781 24.5022 1.50781C23.7776 1.50781 23.1904 2.10162 23.1904 2.83414C23.1904 3.56693 23.7776 4.16074 24.5022 4.16074C25.2265 4.16074 25.814 3.56693 25.814 2.83414Z" fill="#0F5593"/>
<path d="M17.1797 7.19193H17.6727V7.70389C17.6727 8.28644 18.1448 8.75858 18.7274 8.75858C19.3099 8.75858 19.7821 8.28644 19.7821 7.70389V7.19193H20.2751C20.8576 7.19193 21.3298 6.71951 21.3298 6.13724C21.3298 5.55469 20.8576 5.08255 20.2751 5.08255H19.7821V4.57031C19.7821 3.98804 19.3099 3.51562 18.7274 3.51562C18.1448 3.51562 17.6727 3.98804 17.6727 4.57031V5.08255H17.1797C16.5971 5.08255 16.125 5.55469 16.125 6.13724C16.125 6.71951 16.5971 7.19193 17.1797 7.19193Z" fill="#0F5593"/>
<path d="M10.6328 9.73833C10.2389 9.30904 9.57177 9.2802 9.14248 9.67378C8.71319 10.0676 8.68462 10.7348 9.07821 11.1641L9.49184 11.6151L8.96395 12.8392L17.5196 30.675L24.65 28.1404L24.9518 28.4695C25.16 28.6963 25.4443 28.8111 25.7294 28.8111C25.9842 28.8111 26.2394 28.7194 26.4421 28.5337C26.8714 28.1399 26.9 27.4727 26.5064 27.0437L10.6328 9.73833Z" fill="#0F5593"/>
</g>
<defs>
<clipPath id="clip0_5879_4803">
<rect width="36" height="36" fill="white"/>
</clipPath>
</defs>
</svg>
