<svg width="36" height="36" viewBox="0 0 36 36" fill="none" xmlns="http://www.w3.org/2000/svg">
<path d="M25.1292 5.34V3C25.1292 2.385 24.6192 1.875 24.0042 1.875C23.3892 1.875 22.8792 2.385 22.8792 3V5.25H13.1293V3C13.1293 2.385 12.6193 1.875 12.0043 1.875C11.3893 1.875 10.8793 2.385 10.8793 3V5.34C6.82925 5.715 4.86425 8.13 4.56425 11.715C4.53425 12.15 4.89425 12.51 5.31425 12.51H30.6942C31.1292 12.51 31.4892 12.135 31.4442 11.715C31.1442 8.13 29.1792 5.715 25.1292 5.34Z" fill="#0F5593"/>
<path d="M28.5 22.5C25.185 22.5 22.5 25.185 22.5 28.5C22.5 29.625 22.815 30.69 23.37 31.59C24.405 33.33 26.31 34.5 28.5 34.5C30.69 34.5 32.595 33.33 33.63 31.59C34.185 30.69 34.5 29.625 34.5 28.5C34.5 25.185 31.815 22.5 28.5 22.5ZM31.605 27.855L28.41 30.81C28.2 31.005 27.915 31.11 27.645 31.11C27.36 31.11 27.075 31.005 26.85 30.78L25.365 29.295C24.93 28.86 24.93 28.14 25.365 27.705C25.8 27.27 26.52 27.27 26.955 27.705L27.675 28.425L30.075 26.205C30.525 25.785 31.245 25.815 31.665 26.265C32.085 26.715 32.055 27.42 31.605 27.855Z" fill="#0F5593"/>
<path d="M30 14.7578H6C5.175 14.7578 4.5 15.4328 4.5 16.2578V25.4978C4.5 29.9978 6.75 32.9978 12 32.9978H19.395C20.43 32.9978 21.15 31.9928 20.82 31.0178C20.52 30.1478 20.265 29.1878 20.265 28.4978C20.265 23.9528 23.97 20.2478 28.515 20.2478C28.95 20.2478 29.385 20.2778 29.805 20.3528C30.705 20.4878 31.515 19.7828 31.515 18.8828V16.2728C31.5 15.4328 30.825 14.7578 30 14.7578ZM13.815 27.3128C13.53 27.5828 13.14 27.7478 12.75 27.7478C12.36 27.7478 11.97 27.5828 11.685 27.3128C11.415 27.0278 11.25 26.6378 11.25 26.2478C11.25 25.8578 11.415 25.4678 11.685 25.1828C11.835 25.0478 11.985 24.9428 12.18 24.8678C12.735 24.6278 13.395 24.7628 13.815 25.1828C14.085 25.4678 14.25 25.8578 14.25 26.2478C14.25 26.6378 14.085 27.0278 13.815 27.3128ZM13.815 22.0628C13.74 22.1228 13.665 22.1828 13.59 22.2428C13.5 22.3028 13.41 22.3478 13.32 22.3778C13.23 22.4228 13.14 22.4528 13.05 22.4678C12.945 22.4828 12.84 22.4978 12.75 22.4978C12.36 22.4978 11.97 22.3328 11.685 22.0628C11.415 21.7778 11.25 21.3878 11.25 20.9978C11.25 20.6078 11.415 20.2178 11.685 19.9328C12.03 19.5878 12.555 19.4228 13.05 19.5278C13.14 19.5428 13.23 19.5728 13.32 19.6178C13.41 19.6478 13.5 19.6928 13.59 19.7528C13.665 19.8128 13.74 19.8728 13.815 19.9328C14.085 20.2178 14.25 20.6078 14.25 20.9978C14.25 21.3878 14.085 21.7778 13.815 22.0628ZM19.065 22.0628C18.78 22.3328 18.39 22.4978 18 22.4978C17.61 22.4978 17.22 22.3328 16.935 22.0628C16.665 21.7778 16.5 21.3878 16.5 20.9978C16.5 20.6078 16.665 20.2178 16.935 19.9328C17.505 19.3778 18.51 19.3778 19.065 19.9328C19.335 20.2178 19.5 20.6078 19.5 20.9978C19.5 21.3878 19.335 21.7778 19.065 22.0628Z" fill="#0F5593"/>
</svg>
