<svg width="72" height="72" viewBox="0 0 72 72" fill="none" xmlns="http://www.w3.org/2000/svg">
<path d="M0 36C0 16.1178 16.1178 0 36 0C55.8823 0 72 16.1178 72 36C72 55.8823 55.8823 72 36 72C16.1178 72 0 55.8823 0 36Z" fill="white"/>
<g clip-path="url(#clip0_5879_2306)">
<path d="M59.06 26.1148L57.4363 25.1773C56.5394 24.6595 55.3927 24.9668 54.875 25.8636L52.5312 29.9231L57.4026 32.7356L59.7463 28.6761C60.264 27.7793 59.9568 26.6326 59.06 26.1148Z" fill="#0F5593"/>
<path d="M43.275 45.9597C43.2066 46.0782 43.1558 46.2061 43.1243 46.3393L41.7828 52.0143C41.526 53.1004 42.837 53.8572 43.6492 53.0918L47.893 49.0926C47.9926 48.9987 48.078 48.8908 48.1464 48.7722L56.0008 35.168L51.1294 32.3555L43.275 45.9597Z" fill="#0F5593"/>
<path d="M49.8194 51.1398L45.5758 55.1389C44.8389 55.8333 43.8832 56.2157 42.8853 56.2157C42.885 56.2157 42.8849 56.2157 42.8847 56.2157C41.6853 56.2155 40.5233 55.6519 39.7767 54.7079C39.4722 54.323 39.249 53.8917 39.1088 53.436H27.1875C26.4109 53.436 25.7812 52.8064 25.7812 52.0298C25.7812 51.2532 26.4109 50.6235 27.1875 50.6235H39.2193L40.385 45.6927C40.4794 45.2933 40.6313 44.9104 40.8365 44.5546L47.6167 32.8109H27.6133L22.3426 29.2971C21.4081 28.6741 20.1562 29.3441 20.1562 30.4672V54.8422C20.1562 57.6899 22.4648 59.9984 25.3125 59.9984H46.6875C49.5352 59.9984 51.8438 57.6899 51.8438 54.8422V47.9894L50.5798 50.1787C50.374 50.535 50.1183 50.8582 49.8194 51.1398ZM27.1875 39.3734H37.3125C38.0891 39.3734 38.7188 40.0031 38.7188 40.7797C38.7188 41.5563 38.0891 42.1859 37.3125 42.1859H27.1875C26.4109 42.1859 25.7812 41.5563 25.7812 40.7797C25.7812 40.0031 26.4109 39.3734 27.1875 39.3734ZM27.1875 44.9984H37.3125C38.0891 44.9984 38.7188 45.6281 38.7188 46.4047C38.7188 47.1813 38.0891 47.8109 37.3125 47.8109H27.1875C26.4109 47.8109 25.7812 47.1813 25.7812 46.4047C25.7812 45.6281 26.4109 44.9984 27.1875 44.9984Z" fill="#0F5593"/>
<path d="M22.1083 24.9006C22.3641 24.9006 22.6188 24.8211 22.8338 24.6649C23.2139 24.3888 23.4042 23.9209 23.3248 23.4579L22.7871 20.3228L25.0648 18.1026C25.4012 17.7747 25.5222 17.2843 25.3771 16.8375C25.232 16.3908 24.8457 16.0652 24.3809 15.9976L21.2331 15.5403L19.8254 12.6879C19.6175 12.2667 19.1885 12 18.7187 12C18.249 12 17.8199 12.2667 17.6121 12.6878L16.2044 15.5403L13.0566 15.9976C12.5918 16.0652 12.2056 16.3908 12.0605 16.8375C11.9152 17.2842 12.0364 17.7746 12.3727 18.1026L14.6505 20.3228L14.1127 23.4579C14.0333 23.9209 14.2236 24.3888 14.6037 24.6649C14.9837 24.941 15.4876 24.9773 15.9033 24.7588L18.7187 23.2786L21.5342 24.7588C21.7147 24.8538 21.9119 24.9006 22.1083 24.9006Z" fill="#0F5593"/>
<path d="M29.4942 20.3228L28.9566 23.4579C28.8772 23.9209 29.0675 24.3888 29.4476 24.6649C29.8276 24.941 30.3314 24.9773 30.7471 24.7588L33.5625 23.2786L36.378 24.7588C36.7925 24.9769 37.2969 24.9416 37.6776 24.6649C38.0577 24.3888 38.248 23.9209 38.1686 23.4579L37.6308 20.3228L39.9086 18.1026C40.2449 17.7747 40.3661 17.2843 40.2208 16.8375C40.0756 16.3907 39.6896 16.0652 39.2246 15.9976L36.0768 15.5403L34.6691 12.6879C34.4613 12.2667 34.0323 12 33.5625 12C33.0928 12 32.6637 12.2667 32.4559 12.6878L31.0481 15.5403L27.9004 15.9976C27.4356 16.0652 27.0493 16.3908 26.9042 16.8375C26.759 17.2842 26.8801 17.7746 27.2165 18.1026L29.4942 20.3228Z" fill="#0F5593"/>
<path d="M44.338 20.3229L43.8002 23.458C43.7208 23.921 43.9112 24.3889 44.2912 24.665C44.6712 24.9411 45.1748 24.9775 45.5908 24.7589L48.4062 23.2787L51.2216 24.7589C51.6361 24.977 52.1404 24.9417 52.5212 24.665C52.9012 24.3889 53.0916 23.921 53.0122 23.458L52.4746 20.3229L54.7523 18.1027C55.0886 17.7748 55.2097 17.2844 55.0645 16.8376C54.9193 16.3909 54.5332 16.0653 54.0683 15.9977L50.9205 15.5404L49.5129 12.6879C49.305 12.2667 48.876 12 48.4063 12C47.9366 12 47.5076 12.2667 47.2997 12.6879L45.892 15.5403L42.7441 15.9976C42.2793 16.0652 41.8932 16.3908 41.748 16.8375C41.6027 17.2842 41.7239 17.7746 42.0601 18.1026L44.338 20.3229Z" fill="#0F5593"/>
</g>
<defs>
<clipPath id="clip0_5879_2306">
<rect width="48" height="48" fill="white" transform="translate(12 12)"/>
</clipPath>
</defs>
</svg>
