<svg width="72" height="72" viewBox="0 0 72 72" fill="none" xmlns="http://www.w3.org/2000/svg">
<rect width="72" height="72" rx="36" fill="#0F5593" fill-opacity="0.1"/>
<path d="M25.6438 28H46.4442C46.886 28 47.2442 28.3582 47.2442 28.8V30.4001C47.2442 30.8419 46.886 31.2001 46.4442 31.2001H25.6438C25.2016 31.2001 24.8438 30.8419 24.8438 30.4001V28.8C24.8438 28.3582 25.2016 28 25.6438 28Z" fill="#96C4ED"/>
<path d="M46.4465 26.1198C48.2872 25.4792 49.5575 23.7889 49.6614 21.8428C49.7653 19.8963 48.6821 18.0802 46.92 17.2474C45.1578 16.4141 43.0668 16.7294 41.6284 18.0446C41.4421 15.0985 38.9979 12.8047 36.0463 12.8047C33.0943 12.8047 30.6505 15.0985 30.4637 18.0446C29.0247 16.7395 26.9406 16.4313 25.1855 17.2642C23.4304 18.0966 22.3507 19.906 22.4519 21.8463C22.5526 23.7862 23.814 25.4737 25.6461 26.1198V27.9992H46.4465V26.1198Z" fill="#96C4ED"/>
<path d="M38.4469 40.8024C39.7723 40.8024 40.847 39.7278 40.847 38.4023H36.0469C36.0469 39.7278 37.1211 40.8024 38.4469 40.8024Z" fill="#96C4ED"/>
<path d="M33.6422 40.8024C34.9677 40.8024 36.0423 39.7278 36.0423 38.4023H31.2422C31.2422 39.7278 32.3164 40.8024 33.6422 40.8024Z" fill="#96C4ED"/>
<path d="M48.8824 50.9208L40.8423 48.8008C40.8423 50.1266 38.6935 51.2008 36.0422 51.2008C33.3906 51.2008 31.2421 50.1266 31.2421 48.8008L23.2017 50.9208C19.3391 51.9313 16.507 55.2298 16.0938 59.201H55.9903C55.577 55.2298 52.745 51.9313 48.8824 50.9208Z" fill="#96C4ED"/>
<path d="M49.0895 50.1462L41.6456 48.1828V46.4844C44.3652 44.9101 46.3 42.2675 46.9801 39.1994H47.2457C49.013 39.1994 50.4458 37.767 50.4458 35.9994C50.4458 34.2321 49.013 32.7993 47.2457 32.7993V31.777C47.7391 31.4934 48.0438 30.9684 48.0457 30.3992V28.7992C48.0438 28.23 47.7391 27.705 47.2457 27.4218V26.6546C49.1204 25.8062 50.379 23.9979 50.5235 21.9448C50.6677 19.892 49.6743 17.9255 47.9364 16.8232C46.1984 15.7208 43.996 15.6606 42.2007 16.6661C41.4265 13.9071 38.9112 12 36.0455 12C33.1794 12 30.6641 13.9071 29.8899 16.6661C28.0945 15.6606 25.8921 15.7208 24.1542 16.8232C22.4163 17.9255 21.4229 19.892 21.567 21.9448C21.7116 23.9979 22.9702 25.8062 24.8452 26.6546V27.4218C24.3515 27.705 24.0468 28.23 24.0452 28.7992V30.3992C24.0468 30.9684 24.3515 31.4934 24.8452 31.777V32.7993C23.0776 32.7993 21.6452 34.2321 21.6452 35.9994C21.6452 37.767 23.0776 39.1994 24.8452 39.1994H25.1105C25.7906 42.2675 27.7254 44.9101 30.4454 46.4844V48.1828L23.005 50.1462C18.8256 51.252 15.7614 54.8213 15.3009 59.1198C15.2782 59.3456 15.3524 59.5702 15.5048 59.7382C15.6575 59.9061 15.8739 60.0011 16.1009 59.9999H55.9979C56.2237 59.9999 56.4393 59.9042 56.5912 59.7366C56.7428 59.569 56.8162 59.3448 56.7936 59.1198C56.333 54.8213 53.2689 51.2524 49.0895 50.1462ZM25.6452 30.3992V28.7992H46.4457V30.3992H25.6452ZM48.8458 35.9994C48.8458 36.883 48.1293 37.5994 47.2457 37.5994V34.3993C48.1293 34.3993 48.8458 35.1157 48.8458 35.9994ZM23.2452 21.599C23.2436 20.0174 24.1753 18.5837 25.6214 17.9431C27.0675 17.3025 28.7555 17.5755 29.9258 18.6392C30.1536 18.8459 30.4797 18.9037 30.7645 18.788C31.0493 18.672 31.2426 18.4037 31.2622 18.0966C31.4153 15.5673 33.5114 13.595 36.0455 13.595C38.5791 13.595 40.6753 15.5673 40.8288 18.0966C40.8479 18.4037 41.0413 18.672 41.3261 18.788C41.6108 18.9037 41.937 18.8459 42.1648 18.6392C43.3636 17.5513 45.1004 17.2943 46.5629 17.988C48.0254 18.6818 48.9251 20.1896 48.8407 21.8065C48.7563 23.4229 47.7051 24.8292 46.1785 25.3671C45.859 25.4804 45.6453 25.7827 45.6457 26.1218V27.1992H26.4453V26.1198C26.4453 25.7812 26.2316 25.4788 25.9124 25.3655C24.3163 24.8003 23.2487 23.292 23.2452 21.599ZM24.8452 37.5994C23.9612 37.5994 23.2452 36.883 23.2452 35.9994C23.2452 35.1157 23.9612 34.3993 24.8452 34.3993V37.5994ZM26.4453 36.7994V31.9993H45.6457V36.7994C45.6457 42.1014 41.3472 46.3996 36.0455 46.3996C30.7434 46.3996 26.4453 42.1014 26.4453 36.7994ZM36.0455 47.9996C37.4135 47.9977 38.7698 47.743 40.0456 47.2484V48.7996C40.0456 49.4516 38.4869 50.3997 36.0455 50.3997C33.6036 50.3997 32.0454 49.4516 32.0454 48.7996V47.2484C33.3208 47.743 34.6771 47.9977 36.0455 47.9996ZM23.405 51.6935L30.6852 49.7735C31.3614 51.07 33.3798 51.9661 35.9119 51.9966L43.2456 54.1951V58.3999H17.0306C17.7209 55.1412 20.1854 52.5482 23.405 51.6935ZM44.8457 58.3999V53.5997C44.8457 53.2466 44.6136 52.9349 44.275 52.8333L39.4303 51.3798C40.2534 51.0864 40.9507 50.5196 41.4054 49.7735L48.6856 51.6935C51.9048 52.5482 54.3697 55.1416 55.06 58.3999H44.8457Z" fill="#0F5593"/>
<path d="M40.844 34.3994C40.9483 34.3982 41.0518 34.3763 41.1479 34.3353C41.2448 34.2951 41.3338 34.238 41.4119 34.1673C41.7213 33.8521 41.7213 33.347 41.4119 33.0314C41.3338 32.9607 41.2448 32.904 41.1479 32.8634C40.8498 32.738 40.5057 32.8044 40.2756 33.0314C40.0451 33.2603 39.9756 33.606 40.1002 33.9064C40.2248 34.2064 40.519 34.4013 40.844 34.3994Z" fill="#0F5593"/>
<path d="M31.2455 34.4003C31.6224 34.3968 31.9447 34.1276 32.0154 33.7573C32.0861 33.3866 31.8861 33.0179 31.5369 32.8753C31.1877 32.7327 30.7865 32.8561 30.5779 33.1698C30.3689 33.4839 30.4107 33.9019 30.6771 34.1683C30.8306 34.3144 31.0334 34.3972 31.2455 34.4003Z" fill="#0F5593"/>
<path d="M38.4455 41.6017C40.2128 41.6017 41.6456 40.1693 41.6456 38.4017C41.6456 37.9599 41.2874 37.6017 40.8456 37.6017H38.2983C38.3928 37.3454 38.4428 37.0751 38.4455 36.8016V33.6016H36.8455V36.8016C36.8455 37.2434 36.4873 37.6017 36.0455 37.6017C35.6033 37.6017 35.2455 37.2434 35.2455 36.8016V33.6016H33.6454V36.8016C33.6478 37.0751 33.6978 37.3454 33.7923 37.6017H31.2454C30.8032 37.6017 30.4453 37.9599 30.4453 38.4017C30.4391 39.7361 31.2653 40.933 32.5153 41.4006C33.7653 41.8678 35.174 41.5072 36.0455 40.4962C36.647 41.1955 37.5228 41.599 38.4455 41.6017ZM38.4455 40.0017C37.874 40.0013 37.3463 39.6966 37.0603 39.2017H39.8303C39.5444 39.6966 39.0166 40.0013 38.4455 40.0017ZM33.6454 40.0017C33.0739 40.0013 32.5462 39.6966 32.2602 39.2017H35.0302C34.7443 39.6966 34.2165 40.0013 33.6454 40.0017Z" fill="#0F5593"/>
<path d="M41.6454 56.0024C41.6454 56.886 40.929 57.6024 40.0453 57.6024C39.1613 57.6024 38.4453 56.886 38.4453 56.0024C38.4453 55.1188 39.1613 54.4023 40.0453 54.4023C40.929 54.4023 41.6454 55.1188 41.6454 56.0024Z" fill="#0F5593"/>
</svg>
