<svg width="64" height="64" viewBox="0 0 64 64" fill="none" xmlns="http://www.w3.org/2000/svg">
<rect width="64" height="64" rx="32" fill="#0F5593" fill-opacity="0.1"/>
<g clip-path="url(#clip0_5802_1622)">
<path d="M49.9991 38.3663C49.9991 33.899 47.4362 29.912 43.5979 27.9727C43.4787 36.5381 36.5342 43.4826 27.9688 43.6018C29.9081 47.4402 33.8951 50.003 38.3624 50.003C40.4569 50.003 42.4938 49.4452 44.2834 48.3853L49.9483 49.9522L48.3813 44.2874C49.4413 42.4977 49.9991 40.4608 49.9991 38.3663Z" fill="#0F5593"/>
<path d="M41.4922 27.7461C41.4922 20.1664 35.3258 14 27.7461 14C20.1664 14 14 20.1664 14 27.7461C14 30.2164 14.6575 32.6216 15.9061 34.7331L14.0505 41.4414L20.7591 39.5861C22.8706 40.8347 25.2758 41.4922 27.7461 41.4922C35.3258 41.4922 41.4922 35.3258 41.4922 27.7461ZM25.6367 24.5469H23.5273C23.5273 22.2205 25.4197 20.3281 27.7461 20.3281C30.0725 20.3281 31.9648 22.2205 31.9648 24.5469C31.9648 25.7276 31.465 26.8625 30.5929 27.6601L28.8008 29.3004V30.9453H26.6914V28.3715L29.1688 26.1039C29.6116 25.6988 29.8555 25.1459 29.8555 24.5469C29.8555 23.3837 28.9093 22.4375 27.7461 22.4375C26.5829 22.4375 25.6367 23.3837 25.6367 24.5469ZM26.6914 33.0547H28.8008V35.1641H26.6914V33.0547Z" fill="#0F5593"/>
</g>
<defs>
<clipPath id="clip0_5802_1622">
<rect width="36" height="36" fill="white" transform="translate(14 14)"/>
</clipPath>
</defs>
</svg>
