<svg width="48" height="48" viewBox="0 0 48 48" fill="none" xmlns="http://www.w3.org/2000/svg">
<path d="M32.8926 9.92236C32.8926 12.2017 33.8899 14.0498 35.1214 14.0498C35.1704 14.0498 35.2184 14.042 35.2668 14.0362C35.2761 14.5102 35.4163 14.9178 35.7061 15.2095C35.9959 15.5011 36.4009 15.6422 36.8719 15.6516C36.8662 15.7002 36.8584 15.7485 36.8584 15.7979C36.8584 17.0372 38.6947 18.0409 40.9595 18.0409C43.2243 18.0409 45.0606 17.0371 45.0606 15.7979C45.0606 14.5586 43.2243 13.5548 40.9595 13.5548C40.9088 13.5548 40.8595 13.558 40.8092 13.5589C42.4411 11.8158 43.0233 9.71114 42.0963 8.77823C41.1693 7.84533 39.078 8.43127 37.3461 10.0736C37.3471 10.023 37.3502 9.97336 37.3502 9.92236C37.3502 7.64302 36.3529 5.79492 35.1215 5.79492C33.8899 5.79492 32.8926 7.64302 32.8926 9.92236Z" fill="#96C4ED"/>
<path d="M24.6674 11.0701C23.9404 9.38984 22.2457 8.30337 20.4247 8.29325C19.6602 8.28893 18.9899 8.46912 18.4007 8.759C16.886 5.61331 13.2185 4.07515 9.88923 5.30581C6.62551 6.51228 4.8317 9.95862 5.58029 13.2823C3.1546 14.1935 1.91279 16.9062 2.80651 19.3551C3.20757 20.4539 3.97042 21.313 4.9096 21.8461C8.4781 23.872 11.5806 26.6338 14.0012 29.9607L14.5547 30.7214L23.0957 27.5642L23.0114 26.3873C22.7206 22.3258 23.4678 18.3009 24.7986 14.4555C25.1654 13.3958 25.1547 12.1962 24.6674 11.0701Z" fill="#96C4ED"/>
<path d="M37.174 27.2887C35.2558 29.2192 34.5453 31.6346 35.5882 32.6842C35.6297 32.726 35.677 32.7603 35.7227 32.7966C35.3317 33.206 35.1074 33.6707 35.1074 34.1647C35.1074 34.6588 35.3317 35.1234 35.7227 35.5328C35.677 35.5691 35.6297 35.6034 35.5882 35.6452C34.5452 36.6948 35.2557 39.1102 37.174 41.0407C39.0921 42.9712 41.4921 43.6862 42.535 42.6366C43.578 41.587 42.8675 39.1716 40.9493 37.2412C40.9063 37.198 40.8619 37.1586 40.8185 37.1166C43.6675 37.0313 45.9317 35.745 45.9317 34.1648C45.9317 32.5844 43.6675 31.2982 40.8185 31.2129C40.8619 31.1709 40.9063 31.1315 40.9493 31.0883C42.8674 29.1578 43.5779 26.7424 42.535 25.6929C41.4921 24.6431 39.0921 25.3582 37.174 27.2887Z" fill="#96C4ED"/>
<path d="M24.8522 28.8144C24.5856 28.5461 24.1514 28.5448 23.883 28.8113C23.6144 29.0781 23.613 29.5122 23.8799 29.7809L25.9564 31.871C26.2222 32.1385 26.6561 32.1414 26.9256 31.8741C27.1942 31.6073 27.1956 31.1731 26.9287 30.9044L24.8522 28.8144Z" fill="#0F5593"/>
<path d="M17.1368 22.5164C17.1462 22.5003 17.1593 22.4877 17.1675 22.4706L20.2348 16.0598C20.3981 15.7185 20.2537 15.3093 19.9123 15.1456C19.5712 14.9832 19.1614 15.1268 18.9983 15.4682L16.4831 20.7251L15.2349 17.3049C15.2443 17.2889 15.2574 17.2762 15.2655 17.2592L17.4497 12.6945C17.613 12.3531 17.4687 11.9439 17.1273 11.7802C16.7858 11.6179 16.3764 11.7615 16.2133 12.1028L14.5813 15.5137L12.8858 10.8678C12.7561 10.5122 12.3619 10.331 12.007 10.459C11.6514 10.5889 11.4684 10.9824 11.598 11.338L13.2134 15.7646L10.0903 14.3683C9.74422 14.2134 9.33903 14.3683 9.18491 14.7141C9.03031 15.06 9.1851 15.4651 9.53075 15.6195L13.8682 17.5587L15.1493 21.0691L10.0367 18.7836C9.68975 18.6287 9.28578 18.7836 9.1311 19.1294C8.97669 19.4752 9.13156 19.8803 9.47713 20.0347L15.8039 22.8631L16.6216 25.1036C16.7521 25.461 17.1463 25.6409 17.5004 25.5124C17.856 25.3825 18.039 24.989 17.9094 24.6334L17.1368 22.5164Z" fill="#0F5593"/>
<path d="M42.2334 30.6621C43.8015 28.6274 44.1742 26.3691 43.0216 25.209C41.0587 23.2333 37.102 25.741 35.4542 28.358C35.0132 27.9459 34.675 27.6938 34.1831 27.386C36.5159 25.1238 39.1864 21.8085 39.4071 18.5662C39.893 18.6662 40.412 18.7256 40.9602 18.7256C43.6441 18.7256 45.7467 17.4391 45.7467 15.7971C45.7467 14.4107 44.2479 13.2779 42.1656 12.9587C43.3722 11.1725 43.5821 9.29986 42.5831 8.29411C41.5825 7.28742 39.7222 7.4963 37.9469 8.70727C37.6935 7.02605 36.7705 5.10905 35.1229 5.10905H35.1223C33.4608 5.10905 32.208 7.17811 32.208 9.92189C32.208 10.471 32.2642 10.9875 32.3583 11.4708C30.2129 11.5971 27.8514 12.8061 25.3176 15.0772C25.362 14.9441 25.4001 14.8125 25.4462 14.679C25.8846 13.4126 25.8314 12.0338 25.2963 10.7974C24.1807 8.2192 21.247 7.01771 18.7119 7.88771C16.8757 4.77314 13.0946 3.38996 9.6516 4.66205C6.29563 5.90292 4.2891 9.36511 4.80754 12.8731C0.971851 14.8077 0.820163 20.3111 4.57129 22.4416C7.17107 23.9174 9.47507 25.7637 11.4597 27.9409C5.63066 30.3094 1.87457 33.4319 1.62566 33.6423C1.30073 33.9171 1.30176 34.4191 1.62941 34.6922C7.10535 39.2551 16.2303 43.1641 24.4469 43.0471C29.592 42.9781 33.2616 41.9405 35.4376 39.9541C37.3363 42.9585 41.2377 44.9132 43.0217 43.1194C44.1741 41.9597 43.8014 39.7015 42.2335 37.6663C44.8096 37.2344 46.6175 35.8488 46.6175 34.1644C46.6174 32.4795 44.8095 31.094 42.2334 30.6621ZM35.1223 6.47986H35.1225C36.1667 6.47986 36.6656 8.76249 36.6656 9.92142C36.6761 9.96802 36.5715 10.4789 37.0692 10.6992C37.3217 10.8116 37.6178 10.7608 37.8183 10.5702C39.364 9.10439 41.0574 8.70455 41.6106 9.26058C42.1668 9.82008 41.7692 11.5305 40.3094 13.0895C40.1211 13.2908 40.0716 13.5848 40.1832 13.836C40.408 14.3422 40.9143 14.229 40.96 14.2395C42.915 14.2395 44.3757 15.0618 44.3757 15.7972C44.3757 16.5326 42.915 17.355 40.96 17.355C40.3648 17.355 39.8188 17.2767 39.3431 17.1499C39.1275 15.8429 38.4768 14.6348 37.381 13.5318C36.2996 12.4438 35.0942 11.7865 33.7895 11.5557C33.6618 11.0738 33.5787 10.5265 33.5787 9.92208C33.5788 7.95183 34.3935 6.47986 35.1223 6.47986ZM28.7629 14.163L30.729 16.1421C30.9948 16.4097 31.4287 16.4125 31.6982 16.1452C31.9668 15.8784 31.9682 15.4442 31.7013 15.1755L30.0208 13.484C32.5695 12.3236 34.6453 12.7233 36.4089 14.4982C38.9655 17.0709 38.511 20.3435 35.0294 24.4644L32.8673 22.2886C32.6005 22.02 32.1663 22.0191 31.8981 22.2855C31.6295 22.5524 31.6281 22.9865 31.895 23.2552L34.116 25.4902C33.9086 25.7124 33.6161 26.05 32.907 26.7086C30.7675 25.7591 27.9314 25.2792 24.4395 25.2792C24.4389 25.2792 24.4382 25.2792 24.4378 25.2792C24.1767 25.2792 23.9189 25.2877 23.6605 25.2943C23.5953 22.8991 23.8801 20.3863 24.5265 17.78C25.7234 16.4782 27.2597 15.0959 28.7629 14.163ZM5.24807 21.2493C2.2941 19.5722 2.61416 15.1282 5.82126 13.9235C6.1416 13.803 6.32413 13.4653 6.24894 13.131C5.56738 10.1053 7.23435 7.01714 10.1267 5.94802C13.0943 4.85049 16.3937 6.17002 17.783 9.05546C17.9477 9.39689 18.359 9.54202 18.7029 9.37364C20.7556 8.36442 23.1919 9.38546 24.0384 11.3418C24.4368 12.2628 24.4768 13.2891 24.1508 14.231C23.1485 17.1277 22.5563 19.9386 22.3556 22.6357L21.2092 21.4818C20.9424 21.2132 20.5082 21.2123 20.24 21.4787C19.9714 21.7456 19.97 22.1797 20.2369 22.4484C22.2209 24.4158 22.0412 24.3224 22.278 24.4406C22.2757 24.7482 22.2817 25.0531 22.2903 25.3574C18.8173 25.5991 15.6182 26.3991 12.8255 27.415C10.6653 24.9585 8.1306 22.8859 5.24807 21.2493ZM26.6121 41.5745V37.735C26.6121 37.3566 26.3053 37.0496 25.9267 37.0496C25.548 37.0496 25.2413 37.3566 25.2413 37.735V41.6499C24.9714 41.6593 24.7084 41.6727 24.4285 41.6764C20.8033 41.7259 17.3653 41.0068 14.3305 39.9823C14.3306 39.9782 14.3316 39.9746 14.3316 39.9706V36.4307C14.3316 36.0524 14.0249 35.7453 13.6462 35.7453C13.2675 35.7453 12.9608 36.0524 12.9608 36.4307V39.4908C8.19801 37.6743 4.61441 35.2233 3.18566 34.1631C4.8891 32.8892 9.67757 29.6198 16.0463 27.843V30.282C16.0463 30.6603 16.353 30.9674 16.7317 30.9674C17.1104 30.9674 17.4171 30.6603 17.4171 30.282V27.4917C19.6124 26.9753 21.9697 26.6499 24.4375 26.6498H24.4393C26.6793 26.6498 28.6153 26.8528 30.2395 27.2527V30.7165C30.2395 31.0949 30.5462 31.4019 30.9249 31.4019C31.3035 31.4019 31.6103 31.0949 31.6103 30.7165V27.6645C34.9349 28.8648 36.4333 31.0457 36.4333 34.1657C36.4335 38.6404 33.2071 41.0708 26.6121 41.5745ZM40.7984 36.4311C40.523 36.4392 40.2794 36.6114 40.1799 36.8684C39.9787 37.3861 40.4341 37.678 40.4635 37.7237C42.2274 39.4992 42.7151 41.483 42.0493 42.1528C41.0911 43.1178 37.8844 41.5646 36.3913 38.8949C37.3298 37.612 37.8043 36.036 37.8043 34.1656C37.8043 32.311 37.3233 30.7335 36.3935 29.4376C37.9455 26.6565 41.1482 25.2678 42.0493 26.1754C42.7153 26.8456 42.2278 28.8295 40.4625 30.6059C40.4332 30.6516 39.9805 30.9438 40.1794 31.459C40.2789 31.7164 40.5227 31.8891 40.7984 31.8972C43.4591 31.9771 45.2466 33.1336 45.2466 34.1643C45.2466 35.1946 43.4592 36.3512 40.7984 36.4311Z" fill="#0F5593"/>
</svg>
