<svg width="72" height="72" viewBox="0 0 72 72" fill="none" xmlns="http://www.w3.org/2000/svg">
<path d="M0 36C0 16.1178 16.1178 0 36 0C55.8823 0 72 16.1178 72 36C72 55.8823 55.8823 72 36 72C16.1178 72 0 55.8823 0 36Z" fill="white"/>
<path d="M43.125 21.375C43.125 19.0968 41.2782 17.25 39 17.25C36.7218 17.25 34.875 19.0968 34.875 21.375C34.875 23.6532 36.7218 25.5 39 25.5C41.2782 25.5 43.125 23.6532 43.125 21.375Z" fill="#0F5593"/>
<path d="M46.363 31.3983C45.6885 31.2201 44.9801 31.1252 44.2496 31.1252H32.0703C32.5879 28.9339 34.0914 27.1236 36.0866 26.1881C36.9363 26.7035 37.9333 27.0002 38.9996 27.0002C40.132 27.0002 41.1862 26.6655 42.0688 26.0898C44.2564 27.0288 45.8938 29.0043 46.363 31.3983Z" fill="#0F5593"/>
<path d="M51.0003 39.375V44.625H37.4748C37.0896 38.9688 32.3793 34.5 26.6253 34.5C25.4881 34.5 24.3916 34.6746 23.3613 34.9983C24.5994 33.546 26.4423 32.625 28.5003 32.625H44.2503C47.9782 32.625 51.0003 35.6471 51.0003 39.375Z" fill="#0F5593"/>
<path fill-rule="evenodd" clip-rule="evenodd" d="M34.5 52.875C36.1977 51.093 37.2967 48.7355 37.4745 46.125H51.375C53.2391 46.125 54.75 47.636 54.75 49.5C54.75 51.3641 53.2391 52.875 51.375 52.875H34.5ZM49.5 49.5C49.5 50.3284 50.1716 51 51 51C51.8283 51 52.5 50.3284 52.5 49.5C52.5 48.6716 51.8283 48 51 48C50.1716 48 49.5 48.6716 49.5 49.5Z" fill="#0F5593"/>
<path fill-rule="evenodd" clip-rule="evenodd" d="M26.625 54.75C31.8027 54.75 36 50.5526 36 45.375C36 40.1973 31.8027 36 26.625 36C21.4473 36 17.25 40.1973 17.25 45.375C17.25 50.5526 21.4473 54.75 26.625 54.75ZM30.75 45.375C30.75 44.9608 30.4142 44.625 30 44.625H24.8107L26.5303 42.9053C26.8232 42.6125 26.8232 42.1375 26.5303 41.8447C26.2374 41.5518 25.7626 41.5518 25.4697 41.8447L22.7348 44.5795C22.2955 45.0189 22.2955 45.7312 22.7348 46.1705L25.4697 48.9053C25.7626 49.1982 26.2374 49.1982 26.5303 48.9053C26.8232 48.6124 26.8232 48.1376 26.5303 47.8447L24.8107 46.125H30C30.4142 46.125 30.75 45.7892 30.75 45.375Z" fill="#0F5593"/>
</svg>
