<svg width="36" height="36" viewBox="0 0 36 36" fill="none" xmlns="http://www.w3.org/2000/svg">
<rect width="36" height="36" rx="18" fill="white"/>
<path d="M22.0011 22.219H13.9989C12.9491 22.219 12.0982 21.3681 12.0982 20.3183V15.682C12.0982 14.6322 12.9491 13.7812 13.9989 13.7812H22.0011C23.0508 13.7812 23.9018 14.6322 23.9018 15.682V20.3183C23.9018 21.368 23.0509 22.219 22.0011 22.219Z" fill="#0F5593"/>
<path d="M22.0019 13.781H21.2894C22.3387 13.781 23.1893 14.6323 23.1893 15.6825V20.3173C23.1893 21.3675 22.3387 22.2188 21.2894 22.2188H22.0019C23.0512 22.2188 23.9019 21.3675 23.9019 20.3173V15.6825C23.9019 14.6323 23.0512 13.781 22.0019 13.781Z" fill="#0F5593"/>
<path d="M16.5881 16.3466V19.6528C16.5881 19.8728 16.8282 20.0085 17.0165 19.8948L19.7548 18.2418C19.9369 18.1318 19.9369 17.8676 19.7548 17.7576L17.0165 16.1045C16.8282 15.9909 16.5881 16.1266 16.5881 16.3466Z" fill="white"/>
</svg>
