<svg width="36" height="36" viewBox="0 0 36 36" fill="none" xmlns="http://www.w3.org/2000/svg">
<g clip-path="url(#clip0_5879_4504)">
<path fill-rule="evenodd" clip-rule="evenodd" d="M18 0C27.9342 0 36 8.06581 36 18C36 27.9342 27.9342 36 18 36C8.06581 36 0 27.9342 0 18C0 8.06581 8.06581 0 18 0ZM19.8001 9.58384V8.55008C19.8001 7.55648 18.9936 6.74995 18 6.74995C17.0064 6.74995 16.1999 7.55648 16.1999 8.55008V9.58384C16.1999 10.577 17.0064 11.3835 18 11.3835C18.9936 11.3835 19.8001 10.577 19.8001 9.58384ZM19.8001 27.4499V15.583C19.8001 14.5898 18.9936 13.7833 18 13.7833C17.0064 13.7833 16.1999 14.5898 16.1999 15.583V27.4499C16.1999 28.4435 17.0064 29.2501 18 29.2501C18.9936 29.2501 19.8001 28.4435 19.8001 27.4499Z" fill="#0F5593"/>
</g>
<defs>
<clipPath id="clip0_5879_4504">
<rect width="36" height="36" fill="white"/>
</clipPath>
</defs>
</svg>
