<svg width="36" height="36" viewBox="0 0 36 36" fill="none" xmlns="http://www.w3.org/2000/svg">
<path fill-rule="evenodd" clip-rule="evenodd" d="M7.335 3.0007H27.165C29.5064 2.95877 31.4427 4.81462 31.5 7.1557V16.1557C30.8186 15.4814 30.046 14.9058 29.205 14.4457C25.2807 12.3556 20.4794 12.8648 17.0808 15.7316C13.6822 18.5984 12.3711 23.2453 13.77 27.4657C14.0602 28.3637 14.4742 29.2169 15 30.0007H7.335C4.98786 30.0425 3.04921 28.1777 3 25.8307V7.1707C3.04921 4.82371 4.98786 2.95885 7.335 3.0007ZM10.5 12.0007H24C24.8284 12.0007 25.5 11.3291 25.5 10.5007C25.5 9.67226 24.8284 9.0007 24 9.0007H10.5C9.67158 9.0007 9 9.67226 9 10.5007C9 11.3291 9.67158 12.0007 10.5 12.0007Z" fill="#0F5593"/>
<path d="M16.7672 30C16.0334 29.1128 15.4736 28.0949 15.1172 27L16.7672 30Z" fill="#0F5593"/>
<path d="M31.5 18.3456L28.5 15.7656C29.6716 16.4031 30.6942 17.2826 31.5 18.3456Z" fill="#0F5593"/>
<path d="M15.1172 27L16.7672 30C16.0334 29.1128 15.4736 28.0949 15.1172 27Z" fill="#0F5593"/>
<path d="M31.5 18.3456L28.5 15.7656C29.6716 16.4031 30.6942 17.2826 31.5 18.3456Z" fill="#0F5593"/>
<path fill-rule="evenodd" clip-rule="evenodd" d="M28.4972 15.7656L31.4972 18.3456C30.6915 17.2826 29.6688 16.4031 28.4972 15.7656ZM15.1172 27.0006C15.4736 28.0955 16.0334 29.1134 16.7672 30.0006L15.1172 27.0006Z" fill="#0F5593"/>
<path fill-rule="evenodd" clip-rule="evenodd" d="M28.498 15.765L31.498 18.345C32.7313 19.9707 33.3907 21.9596 33.373 24C33.3865 27.9609 30.9092 31.503 27.184 32.8491C23.4587 34.1952 19.2895 33.0548 16.768 30L15.118 27C14.1517 24.1391 14.6227 20.9877 16.3832 18.5343C18.1438 16.0809 20.9783 14.6257 23.998 14.625C25.5692 14.6268 27.1154 15.0186 28.498 15.765ZM23.608 28.065L28.108 23.565L28.033 23.61C28.6213 23.0219 28.6213 22.0682 28.033 21.48C27.4448 20.8918 26.4911 20.8918 25.903 21.48L22.903 24.48L22.333 23.34C22.1168 22.821 21.6286 22.4664 21.0682 22.4214C20.5076 22.3766 19.9691 22.6488 19.673 23.1269C19.3771 23.6048 19.3732 24.2082 19.663 24.69L21.163 27.69C21.3773 28.1198 21.7844 28.4208 22.258 28.5H22.498C22.9123 28.5146 23.314 28.357 23.608 28.065Z" fill="#0F5593"/>
</svg>
