<svg width="36" height="36" viewBox="0 0 36 36" fill="none" xmlns="http://www.w3.org/2000/svg">
<path d="M30.375 18.8934C29.1646 19.4047 27.8341 19.6875 26.4375 19.6875C20.8456 19.6875 16.3125 15.1544 16.3125 9.5625C16.3125 7.26891 17.0751 5.15342 18.3607 3.45581C18.2409 3.44271 18.1207 3.43117 18 3.42121V2.25C18 1.62868 17.4963 1.125 16.875 1.125C16.2537 1.125 15.75 1.62868 15.75 2.25V3.42121C8.82051 3.99288 3.37501 9.79802 3.37501 16.875V26.881L2.56934 29.25H2.25C1.62868 29.25 1.125 29.7537 1.125 30.375C1.125 30.9963 1.62868 31.5 2.25 31.5H31.5C32.1213 31.5 32.625 30.9963 32.625 30.375C32.625 29.7537 32.1213 29.25 31.5 29.25H31.1807L30.375 26.881V18.8934Z" fill="#0F5593"/>
<path d="M14.625 32.625C14.0037 32.625 13.5 33.1287 13.5 33.75C13.5 34.3713 14.0037 34.875 14.625 34.875H19.125C19.7463 34.875 20.25 34.3713 20.25 33.75C20.25 33.1287 19.7463 32.625 19.125 32.625H14.625Z" fill="#0F5593"/>
<path fill-rule="evenodd" clip-rule="evenodd" d="M34.875 9.5625C34.875 4.9026 31.0974 1.125 26.4375 1.125C21.7776 1.125 18 4.9026 18 9.5625C18 14.2224 21.7776 18 26.4375 18C31.0974 18 34.875 14.2224 34.875 9.5625ZM24.983 6.51701C24.5437 6.07764 23.8313 6.07764 23.392 6.51701C22.9526 6.95633 22.9526 7.66867 23.392 8.10799L24.8465 9.5625L23.392 11.017C22.9526 11.4563 22.9526 12.1687 23.392 12.608C23.8313 13.0474 24.5437 13.0474 24.983 12.608L26.4375 11.1535L27.892 12.608C28.3313 13.0474 29.0437 13.0474 29.483 12.608C29.9224 12.1687 29.9224 11.4563 29.483 11.017L28.0285 9.5625L29.483 8.10799C29.9224 7.66867 29.9224 6.95633 29.483 6.51701C29.0437 6.07764 28.3313 6.07764 27.892 6.51701L26.4375 7.97153L24.983 6.51701Z" fill="#0F5593"/>
</svg>
