<svg width="72" height="72" viewBox="0 0 72 72" fill="none" xmlns="http://www.w3.org/2000/svg">
<rect width="72" height="72" rx="36" fill="#F4B400" fill-opacity="0.1"/>
<path d="M25.2975 37.5H22.7025C22.5703 37.728 22.5004 37.9868 22.5 38.2504C22.4996 38.5139 22.5686 38.7729 22.7002 39.0013C22.8317 39.2297 23.0211 39.4194 23.2493 39.5513C23.4775 39.6832 23.7364 39.7527 24 39.7527C24.2636 39.7527 24.5225 39.6832 24.7507 39.5513C24.9789 39.4194 25.1683 39.2297 25.2998 39.0013C25.4314 38.7729 25.5004 38.5139 25.5 38.2504C25.4996 37.9868 25.4297 37.728 25.2975 37.5Z" fill="#F4B400" fill-opacity="0.2"/>
<path d="M27.7493 34.7025C27.5308 34.5888 27.3463 34.4192 27.2145 34.2111C27.0828 34.003 27.0085 33.7636 26.9993 33.5175V31.5C26.9993 30.9042 26.8216 30.3219 26.4889 29.8276C26.1563 29.3332 25.6837 28.9494 25.1318 28.725C24.7727 28.5764 24.3879 28.5 23.9993 28.5L23.2493 28.5975C23.1179 28.6275 22.9898 28.6702 22.8668 28.725C22.3135 28.9475 21.8397 29.3309 21.5068 29.8257C21.1738 30.3204 20.997 30.9037 20.9993 31.5V33.45C21.0068 33.6954 20.9472 33.9383 20.8269 34.1524C20.7067 34.3665 20.5303 34.5437 20.3168 34.665C20.0321 34.8107 19.8014 35.0435 19.6584 35.3295C19.5153 35.6156 19.4675 35.9398 19.5218 36.255C19.5942 36.6127 19.7903 36.9334 20.0755 37.161C20.3607 37.3887 20.7169 37.5087 21.0818 37.5H26.4743C27.6668 37.5 28.3568 36.99 28.4768 36.255C28.531 35.9528 28.4902 35.6411 28.3599 35.3631C28.2296 35.085 28.0162 34.8542 27.7493 34.7025Z" fill="#F4B400" fill-opacity="0.2"/>
<path d="M24 26.25C23.6022 26.25 23.2207 26.408 22.9394 26.6893C22.6581 26.9706 22.5 27.3522 22.5 27.75C22.498 28.1092 22.6289 28.4565 22.8675 28.725C22.9906 28.6702 23.1187 28.6275 23.25 28.5975L24 28.5C24.3886 28.5 24.7734 28.5764 25.1325 28.725C25.3712 28.4565 25.5021 28.1092 25.5 27.75C25.4988 27.3525 25.3404 26.9717 25.0594 26.6907C24.7783 26.4096 24.3975 26.2512 24 26.25Z" fill="#F4B400" fill-opacity="0.2"/>
<path d="M48.75 48.75V54.015C48.75 55.0056 48.3565 55.9556 47.656 56.656C46.9556 57.3565 46.0056 57.75 45.015 57.75H26.985C25.9944 57.75 25.0444 57.3565 24.344 56.656C23.6435 55.9556 23.25 55.0056 23.25 54.015V42.72C23.4975 42.7425 23.745 42.75 24 42.75C26.5859 42.75 29.0658 41.7228 30.8943 39.8943C32.7228 38.0658 33.75 35.5859 33.75 33C33.75 30.4141 32.7228 27.9342 30.8943 26.1057C29.0658 24.2772 26.5859 23.25 24 23.25C23.7495 23.2473 23.499 23.2599 23.25 23.2875V17.985C23.25 16.9944 23.6435 16.0444 24.344 15.344C25.0444 14.6435 25.9944 14.25 26.985 14.25H45.015C46.0056 14.25 46.9556 14.6435 47.656 15.344C48.3565 16.0444 48.75 16.9944 48.75 17.985V35.25H38.25C37.8525 35.2512 37.4717 35.4096 37.1907 35.6907C36.9096 35.9717 36.7512 36.3525 36.75 36.75V47.25C36.7512 47.6475 36.9096 48.0283 37.1907 48.3093C37.4717 48.5904 37.8525 48.7488 38.25 48.75H48.75ZM39 53.25C38.9988 52.8525 38.8404 52.4717 38.5593 52.1907C38.2783 51.9096 37.8975 51.7512 37.5 51.75H34.5C34.1031 51.7529 33.7233 51.9119 33.4426 52.1926C33.1619 52.4733 33.0029 52.8531 33 53.25C33.0012 53.6475 33.1596 54.0283 33.4407 54.3093C33.7217 54.5904 34.1025 54.7488 34.5 54.75H37.5C37.8969 54.7471 38.2767 54.5881 38.5574 54.3074C38.8381 54.0267 38.9971 53.6469 39 53.25Z" fill="#F4B400" fill-opacity="0.2"/>
<path d="M48 54.012C47.9988 54.8041 47.6836 55.5634 47.1235 56.1235C46.5634 56.6836 45.8041 56.9988 45.012 57H26.988C26.1959 56.9988 25.4366 56.6836 24.8765 56.1235C24.3164 55.5634 24.0012 54.8041 24 54.012V45H22.5V54.012C22.5016 55.2018 22.9749 56.3424 23.8163 57.1837C24.6576 58.0251 25.7982 58.4984 26.988 58.5H45.012C46.2018 58.4984 47.3424 58.0251 48.1837 57.1837C49.0251 56.3424 49.4984 55.2018 49.5 54.012V51H48V54.012Z" fill="#F4B400"/>
<path d="M24 17.988C24.0012 17.1959 24.3164 16.4366 24.8765 15.8765C25.4366 15.3164 26.1959 15.0012 26.988 15H45.012C45.8041 15.0012 46.5634 15.3164 47.1235 15.8765C47.6836 16.4366 47.9988 17.1959 48 17.988V33H49.5V17.988C49.4984 16.7982 49.0251 15.6576 48.1837 14.8163C47.3424 13.9749 46.2018 13.5016 45.012 13.5H26.988C25.7982 13.5016 24.6576 13.9749 23.8163 14.8163C22.9749 15.6576 22.5016 16.7982 22.5 17.988V21H24V17.988Z" fill="#F4B400"/>
<path d="M29.25 16.5H30.75V18H29.25V16.5Z" fill="#F4B400"/>
<path d="M32.25 16.5H39.75V18H32.25V16.5Z" fill="#F4B400"/>
<path d="M32.25 53.25C32.25 53.8467 32.4871 54.419 32.909 54.841C33.331 55.2629 33.9033 55.5 34.5 55.5H37.5C38.0967 55.5 38.669 55.2629 39.091 54.841C39.5129 54.419 39.75 53.8467 39.75 53.25C39.75 52.6533 39.5129 52.081 39.091 51.659C38.669 51.2371 38.0967 51 37.5 51H34.5C33.9033 51 33.331 51.2371 32.909 51.659C32.4871 52.081 32.25 52.6533 32.25 53.25ZM34.5 52.5H37.5C37.6989 52.5 37.8897 52.579 38.0303 52.7197C38.171 52.8603 38.25 53.0511 38.25 53.25C38.25 53.4489 38.171 53.6397 38.0303 53.7803C37.8897 53.921 37.6989 54 37.5 54H34.5C34.3011 54 34.1103 53.921 33.9697 53.7803C33.829 53.6397 33.75 53.4489 33.75 53.25C33.75 53.0511 33.829 52.8603 33.9697 52.7197C34.1103 52.579 34.3011 52.5 34.5 52.5Z" fill="#F4B400"/>
<path d="M26.2504 38.2502H26.4754C28.2754 38.2502 29.0734 37.2805 29.2204 36.3752C29.2982 35.9222 29.2349 35.4562 29.039 35.0403C28.8432 34.6244 28.5242 34.2788 28.1254 34.0502C28.0232 34.0004 27.9352 33.9255 27.8696 33.8325C27.8041 33.7395 27.7631 33.6315 27.7504 33.5185V31.5002C27.7499 30.8956 27.603 30.3 27.3222 29.7645C27.0414 29.229 26.635 28.7695 26.1379 28.4252C26.249 28.0873 26.2784 27.7278 26.2236 27.3763C26.1689 27.0249 26.0316 26.6914 25.823 26.4032C25.6144 26.1151 25.3404 25.8805 25.0236 25.7188C24.7068 25.557 24.3562 25.4727 24.0004 25.4727C23.6447 25.4727 23.2941 25.557 22.9773 25.7188C22.6604 25.8805 22.3865 26.1151 22.1779 26.4032C21.9693 26.6914 21.832 27.0249 21.7772 27.3763C21.7225 27.7278 21.7519 28.0873 21.8629 28.4252C21.3658 28.7695 20.9595 29.229 20.6787 29.7645C20.3979 30.3 20.2509 30.8956 20.2504 31.5002V33.4502C20.2573 33.5574 20.2356 33.6646 20.1877 33.7607C20.1397 33.8569 20.0672 33.9387 19.9774 33.9977C19.5511 34.2152 19.2052 34.5631 18.9901 34.9906C18.775 35.4182 18.7018 35.9032 18.7812 36.3752C18.8836 36.9079 19.17 37.3876 19.5904 37.7304C20.0108 38.0731 20.5383 38.2572 21.0807 38.2502H21.7504C21.7504 38.847 21.9875 39.4193 22.4094 39.8412C22.8314 40.2632 23.4037 40.5002 24.0004 40.5002C24.5972 40.5002 25.1695 40.2632 25.5914 39.8412C26.0134 39.4193 26.2504 38.847 26.2504 38.2502ZM23.2504 27.7502C23.2504 27.5513 23.3295 27.3605 23.4701 27.2199C23.6108 27.0792 23.8015 27.0002 24.0004 27.0002C24.1993 27.0002 24.3901 27.0792 24.5308 27.2199C24.6714 27.3605 24.7504 27.5513 24.7504 27.7502C24.7475 27.7755 24.743 27.8005 24.7369 27.8252C24.2509 27.7262 23.7499 27.7262 23.2639 27.8252C23.2579 27.8005 23.2534 27.7755 23.2504 27.7502ZM21.0807 36.7502C20.8937 36.757 20.7102 36.6992 20.5609 36.5865C20.4116 36.4738 20.3056 36.3131 20.2609 36.1315C20.2327 35.9729 20.2563 35.8095 20.3281 35.6654C20.4 35.5213 20.5163 35.4041 20.6599 35.3312C20.9977 35.149 21.2784 34.8768 21.4709 34.5448C21.6634 34.2127 21.7601 33.8339 21.7504 33.4502V31.5002C21.7504 30.9035 21.9875 30.3312 22.4094 29.9092C22.8314 29.4873 23.4037 29.2502 24.0004 29.2502C24.5972 29.2502 25.1695 29.4873 25.5914 29.9092C26.0134 30.3312 26.2504 30.9035 26.2504 31.5002V33.52C26.259 33.8973 26.3677 34.2656 26.5653 34.5872C26.763 34.9087 27.0426 35.172 27.3754 35.35C27.5086 35.4275 27.6149 35.544 27.68 35.6837C27.7452 35.8233 27.7661 35.9796 27.7399 36.1315C27.6484 36.6895 26.8249 36.7502 26.4747 36.7502H21.0807ZM23.2504 38.2502H24.7504C24.7504 38.4491 24.6714 38.6399 24.5308 38.7805C24.3901 38.9212 24.1993 39.0002 24.0004 39.0002C23.8015 39.0002 23.6108 38.9212 23.4701 38.7805C23.3295 38.6399 23.2504 38.4491 23.2504 38.2502Z" fill="#F4B400"/>
<path d="M34.5 33C34.5 30.9233 33.8842 28.8932 32.7304 27.1665C31.5767 25.4398 29.9368 24.094 28.0182 23.2993C26.0996 22.5045 23.9884 22.2966 21.9516 22.7018C19.9148 23.1069 18.0438 24.1069 16.5754 25.5754C15.1069 27.0438 14.1069 28.9148 13.7018 30.9516C13.2966 32.9884 13.5045 35.0996 14.2993 37.0182C15.094 38.9368 16.4398 40.5767 18.1665 41.7304C19.8932 42.8842 21.9233 43.5 24 43.5C26.7839 43.497 29.4528 42.3898 31.4213 40.4213C33.3898 38.4529 34.497 35.7839 34.5 33ZM15 33C15 31.22 15.5278 29.4799 16.5168 27.9999C17.5057 26.5198 18.9113 25.3663 20.5559 24.6851C22.2004 24.0039 24.01 23.8257 25.7558 24.1729C27.5016 24.5202 29.1053 25.3774 30.364 26.636C31.6226 27.8947 32.4798 29.4984 32.8271 31.2442C33.1743 32.99 32.9961 34.7996 32.3149 36.4442C31.6337 38.0887 30.4802 39.4943 29.0001 40.4832C27.5201 41.4722 25.78 42 24 42C21.6138 41.9974 19.3262 41.0484 17.6389 39.3611C15.9516 37.6738 15.0026 35.3862 15 33Z" fill="#F4B400"/>
<path d="M56.25 34.5H38.25C37.6533 34.5 37.081 34.7371 36.659 35.159C36.2371 35.581 36 36.1533 36 36.75V47.25C36 47.8467 36.2371 48.419 36.659 48.841C37.081 49.2629 37.6533 49.5 38.25 49.5H56.25C56.8467 49.5 57.419 49.2629 57.841 48.841C58.2629 48.419 58.5 47.8467 58.5 47.25V36.75C58.5 36.1533 58.2629 35.581 57.841 35.159C57.419 34.7371 56.8467 34.5 56.25 34.5ZM38.25 36H56.25C56.3685 36.0013 56.4848 36.0312 56.5893 36.0871C56.6937 36.1429 56.7832 36.2232 56.85 36.321L47.55 40.3073C47.4566 40.347 47.356 40.3675 47.2545 40.3675C47.153 40.3675 47.0525 40.347 46.959 40.3073L37.65 36.321C37.7168 36.2232 37.8063 36.1429 37.9107 36.0871C38.0152 36.0312 38.1315 36.0013 38.25 36ZM56.25 48H38.25C38.0511 48 37.8603 47.921 37.7197 47.7803C37.579 47.6397 37.5 47.4489 37.5 47.25V37.8877L46.3643 41.6865C46.6445 41.8058 46.9458 41.8672 47.2504 41.8672C47.5549 41.8672 47.8563 41.8058 48.1365 41.6865L57 37.8877V47.25C57 47.4489 56.921 47.6397 56.7803 47.7803C56.6397 47.921 56.4489 48 56.25 48Z" fill="#F4B400"/>
<path d="M36 22.5H37.5V24H36V22.5Z" fill="#F4B400"/>
<path d="M39 22.5H45V24H39V22.5Z" fill="#F4B400"/>
<path d="M36 25.5H45V27H36V25.5Z" fill="#F4B400"/>
<path d="M36 28.5H45V30H36V28.5Z" fill="#F4B400"/>
</svg>
