<svg width="24" height="24" viewBox="0 0 24 24" fill="none" xmlns="http://www.w3.org/2000/svg">
<g clip-path="url(#clip0_5879_4996)">
<path d="M22.5526 12.5286C22.167 12.4824 21.8171 12.7578 21.7711 13.1434C21.1934 17.985 17.0699 21.6363 12.1796 21.6363C9.86045 21.6363 7.61817 20.8033 5.86606 19.2907C4.41497 18.0383 3.37513 16.3893 2.86921 14.5667L3.70911 15.0281C4.04949 15.2149 4.47704 15.0907 4.66381 14.7503C4.85075 14.4099 4.72643 13.9824 4.38604 13.7956L2.22854 12.6104C1.88833 12.4236 1.46133 12.5476 1.27402 12.8874L0.0873303 15.0424C-0.0999839 15.3826 0.0239768 15.8101 0.363999 15.9974C0.678204 16.1588 1.10428 16.0736 1.31906 15.7208L1.59518 15.2196C2.20089 17.1982 3.35901 18.9844 4.94707 20.3553C6.95461 22.0882 9.52299 23.0425 12.1796 23.0425C17.7817 23.0425 22.5054 18.8584 23.1675 13.31C23.2134 12.9244 22.9382 12.5745 22.5526 12.5286Z" fill="#875DDD"/>
<path d="M23.5746 6.94163C23.2183 6.788 22.8045 6.95225 22.6507 7.30893L22.4297 7.82107C21.683 5.9992 20.4434 4.37874 18.8648 3.18179C16.9285 1.71349 14.6169 0.9375 12.1796 0.9375C9.6262 0.9375 7.13472 1.82683 5.16435 3.4418C3.22108 5.03461 1.86685 7.25748 1.35123 9.70081C1.27103 10.0807 1.51419 10.4537 1.89413 10.5339C1.94302 10.5444 1.99173 10.5491 2.03988 10.5491C2.36526 10.5491 2.65731 10.3221 2.72707 9.99121C3.17695 7.85971 4.35906 5.9201 6.0557 4.52943C7.7754 3.1199 9.95029 2.34355 12.1796 2.34355C14.3074 2.34355 16.3254 3.02084 18.0151 4.3022C19.468 5.40393 20.5913 6.91563 21.2289 8.61043L20.3385 8.22738C19.9818 8.07412 19.5681 8.23873 19.4147 8.59541C19.2613 8.9521 19.4261 9.36573 19.7827 9.51917L22.0444 10.4918C22.1351 10.5308 22.2292 10.5493 22.322 10.5493C22.5943 10.5493 22.8532 10.3902 22.968 10.1245L23.9419 7.86575C24.0957 7.50906 23.9313 7.09543 23.5746 6.94163Z" fill="#875DDD"/>
<path d="M9.71766 8.34769L7.63852 11.734C7.59769 11.8164 7.51475 11.8644 7.4285 11.8644C7.39353 11.8644 7.35801 11.8565 7.32468 11.8398C7.20384 11.78 7.07566 11.7516 6.94932 11.7516C6.6375 11.7516 6.33776 11.9244 6.18981 12.2227L6.06475 12.475C5.85711 12.8941 6.02868 13.4022 6.44762 13.6099L14.1628 17.4327C14.2837 17.4926 14.4119 17.521 14.5382 17.521C14.85 17.521 15.1498 17.3481 15.2977 17.0498L15.4228 16.7975C15.6304 16.3784 15.4588 15.8703 15.0399 15.6627C14.924 15.6052 14.8766 15.4647 14.9339 15.3488L16.3689 11.6434C17.065 9.84584 16.2753 7.81413 14.5483 6.95831C14.0182 6.69574 13.4533 6.57031 12.896 6.57031C11.6373 6.57031 10.4167 7.20916 9.71766 8.34769Z" fill="#875DDD"/>
<path d="M11.1248 18.4747C11.6731 18.7197 12.1848 18.4841 12.4553 18.1552L10.573 17.2227C10.4324 17.7093 10.6548 18.2418 11.1248 18.4747Z" fill="#875DDD"/>
<path d="M16.0189 6.22633C16.0264 6.21278 16.0341 6.19923 16.0411 6.18532C16.2857 5.69149 16.0837 5.09293 15.5901 4.8483C15.0089 4.63627 14.4836 4.77927 14.2531 5.29928C14.2461 5.31357 14.2406 5.32803 14.2344 5.34231C14.5566 5.42965 14.8707 5.54794 15.1698 5.69625C15.4722 5.84603 15.7558 6.02419 16.0189 6.22633Z" fill="#875DDD"/>
</g>
<defs>
<clipPath id="clip0_5879_4996">
<rect width="24" height="24" fill="white"/>
</clipPath>
</defs>
</svg>
