<svg width="24" height="24" viewBox="0 0 24 24" fill="none" xmlns="http://www.w3.org/2000/svg">
<path fill-rule="evenodd" clip-rule="evenodd" d="M11.9963 3C10.2683 3 8.74628 3.876 7.84828 5.207C6.7162 4.8288 5.48025 4.91581 4.41232 5.44888C3.3444 5.98195 2.53197 6.91742 2.15378 8.0495C1.77558 9.18158 1.86258 10.4175 2.39566 11.4855C2.92873 12.5534 3.8642 13.3658 4.99628 13.744V18C4.99628 18.7956 5.31235 19.5587 5.87496 20.1213C6.43756 20.6839 7.20063 21 7.99628 21H15.9963C16.7919 21 17.555 20.6839 18.1176 20.1213C18.6802 19.5587 18.9963 18.7956 18.9963 18V13.744C20.1101 13.3515 21.0251 12.537 21.5438 11.476C22.0626 10.4151 22.1436 9.19278 21.7694 8.07266C21.3952 6.95254 20.5958 6.02437 19.5435 5.48829C18.4912 4.95221 17.2704 4.85119 16.1443 5.207C15.6866 4.52744 15.069 3.97075 14.3457 3.58591C13.6224 3.20107 12.8156 2.99987 11.9963 3ZM6.99628 18V17H16.9963V18C16.9963 18.2652 16.8909 18.5196 16.7034 18.7071C16.5158 18.8946 16.2615 19 15.9963 19H7.99628C7.73106 19 7.47671 18.8946 7.28917 18.7071C7.10163 18.5196 6.99628 18.2652 6.99628 18Z" fill="#B02A1E"/>
</svg>
