<svg width="72" height="72" viewBox="0 0 72 72" fill="none" xmlns="http://www.w3.org/2000/svg">
<path d="M0 36C0 16.1178 16.1178 0 36 0C55.8823 0 72 16.1178 72 36C72 55.8823 55.8823 72 36 72C16.1178 72 0 55.8823 0 36Z" fill="white"/>
<g clip-path="url(#clip0_5879_4866)">
<path d="M55.3907 16.607C54.9967 16.2133 54.4511 15.9979 53.8554 16H53.8279C50.9309 16.0784 47.9777 16.6098 45.0752 17.5469L54.4453 26.917C55.3861 24.0261 55.9187 21.0751 55.9977 18.1698L55.9983 18.143C56.0002 17.5469 55.7853 17.0016 55.3907 16.607Z" fill="#0F5593"/>
<path d="M37.5166 31.0909C37.5166 31.9682 37.8584 32.7928 38.4788 33.4132C39.7599 34.6944 41.8437 34.6944 43.1248 33.4132C43.7452 32.7928 44.087 31.9682 44.087 31.0909C44.0876 30.2132 43.7455 29.3883 43.1248 28.7673C41.8443 27.4867 39.7599 27.4861 38.4788 28.7673C37.8584 29.3877 37.5166 30.2126 37.5166 31.0909Z" fill="#0F5593"/>
<path d="M31.3191 25.5555C30.9395 25.8973 30.4344 26.0731 29.9351 26.0365C23.6839 25.5824 18.2491 28.7754 16.0897 34.1709C15.9056 34.6311 16.01 35.1576 16.3558 35.5122C16.7018 35.8668 17.227 35.9846 17.6915 35.8128C19.5671 35.1164 21.5901 34.9043 23.6141 35.1835C23.3241 35.7044 23.0473 36.2476 22.8224 36.7985C22.4031 37.6762 22.5585 38.574 23.2539 39.2695L32.9216 48.9368C33.4712 49.4855 34.3602 49.5765 35.1991 49.1752C35.666 48.9844 36.1513 48.7458 36.6322 48.4723C36.8937 50.4673 36.6771 52.4579 35.9913 54.3061C35.8207 54.766 35.934 55.2848 36.2803 55.6311L36.2907 55.6415C36.6453 55.9876 37.1718 56.0929 37.6323 55.9092C43.1697 53.6982 46.3771 48.2746 45.8021 42.0924C45.7539 41.5723 45.9303 41.0548 46.2858 40.6702C49.4255 37.2813 51.8931 33.4025 53.5563 29.3394L42.6466 18.4297C38.6082 20.0657 34.7319 22.4839 31.3191 25.5555ZM46.4363 31.089C46.4363 32.5929 45.85 34.0064 44.7874 35.0694C42.5923 37.2642 39.0214 37.2642 36.8266 35.0694C35.764 34.0064 35.1777 32.5929 35.1777 31.089C35.1784 29.586 35.7634 28.1724 36.8266 27.1089C39.0214 24.914 42.5923 24.914 44.7874 27.1089C45.8506 28.1721 46.4363 29.5854 46.4363 31.089Z" fill="#0F5593"/>
<path d="M19.1176 47.2625C17.4849 50.4278 17.2271 52.5021 18.3284 53.6034C19.4301 54.7048 21.5041 54.4469 24.6697 52.8145C26.6994 51.7678 28.9638 50.2447 29.9364 49.2721L22.6598 41.9961C21.6872 42.9687 20.1644 45.2328 19.1176 47.2625Z" fill="#0F5593"/>
</g>
<defs>
<clipPath id="clip0_5879_4866">
<rect width="40" height="40" fill="white" transform="translate(16 16)"/>
</clipPath>
</defs>
</svg>
