<svg width="36" height="36" viewBox="0 0 36 36" fill="none" xmlns="http://www.w3.org/2000/svg">
<path d="M33.75 12.3863V30.3525C33.7521 31.2503 33.3979 32.1123 32.7652 32.7493C32.1324 33.3862 31.2728 33.7461 30.375 33.75H5.62501C4.7272 33.7461 3.86759 33.3862 3.23485 32.7493C2.60211 32.1123 2.24792 31.2503 2.25001 30.3525V12.3863C2.24962 12.1558 2.27223 11.9259 2.31751 11.7L4.50001 13.7812L15.66 24.435C16.3121 25.0045 17.1497 25.3165 18.0155 25.3124C18.8813 25.3082 19.7159 24.9883 20.3625 24.4125L31.5 13.7812L33.6825 11.7C33.7278 11.9259 33.7504 12.1558 33.75 12.3863ZM17.2125 22.8071L7.87501 13.8949V5.94C7.8368 5.00405 8.17014 4.09094 8.80234 3.39973C9.43455 2.70851 10.3144 2.29524 11.25 2.25H24.75C25.6856 2.29524 26.5655 2.70851 27.1977 3.39973C27.8299 4.09094 28.1632 5.00405 28.125 5.94V13.8949L18.8438 22.7531C18.6065 22.9579 18.3021 23.068 17.9888 23.0625C17.7083 23.0694 17.4341 22.9792 17.2125 22.8071ZM13.5 9H22.5C22.7984 9 23.0845 8.88147 23.2955 8.6705C23.5065 8.45952 23.625 8.17337 23.625 7.875C23.625 7.57663 23.5065 7.29048 23.2955 7.0795C23.0845 6.86853 22.7984 6.75 22.5 6.75H13.5C13.2016 6.75 12.9155 6.86853 12.7045 7.0795C12.4935 7.29048 12.375 7.57663 12.375 7.875C12.375 8.17337 12.4935 8.45952 12.7045 8.6705C12.9155 8.88147 13.2016 9 13.5 9ZM14.625 13.5H21.375C21.6734 13.5 21.9595 13.3815 22.1705 13.1705C22.3815 12.9595 22.5 12.6734 22.5 12.375C22.5 12.0766 22.3815 11.7905 22.1705 11.5795C21.9595 11.3685 21.6734 11.25 21.375 11.25H14.625C14.3266 11.25 14.0405 11.3685 13.8295 11.5795C13.6185 11.7905 13.5 12.0766 13.5 12.375C13.5 12.6734 13.6185 12.9595 13.8295 13.1705C14.0405 13.3815 14.3266 13.5 14.625 13.5Z" fill="#0F5593"/>
</svg>
