<svg width="72" height="72" viewBox="0 0 72 72" fill="none" xmlns="http://www.w3.org/2000/svg">
<rect width="72" height="72" rx="36" fill="white"/>
<path fill-rule="evenodd" clip-rule="evenodd" d="M36 16C24.9543 16 16 24.9543 16 36C16 39.6306 16.969 43.0392 18.6625 45.9766C19.0074 46.5748 19.0666 47.3032 18.7755 47.9294L17.0681 51.6032C16.0197 53.5866 17.4547 56 19.7232 56H36C47.0456 56 56 47.0456 56 36C56 24.9543 47.0456 16 36 16ZM30 30C28.8954 30 28 30.8954 28 32C28 33.1046 28.8954 34 30 34H34C35.1046 34 36 33.1046 36 32C36 30.8954 35.1046 30 34 30H30ZM30 38C28.8954 38 28 38.8954 28 40C28 41.1046 28.8954 42 30 42H42C43.1046 42 44 41.1046 44 40C44 38.8954 43.1046 38 42 38H30Z" fill="#0F5593"/>
</svg>
