<svg width="36" height="36" viewBox="0 0 36 36" fill="none" xmlns="http://www.w3.org/2000/svg">
<g clip-path="url(#clip0_5802_1450)">
<path d="M16.2 0C7.2 0 0 7.2 0 16.2C0 25.2 7.2 32.4 16.2 32.4C16.74 32.4 17.46 32.4 18 32.22C18 32.22 19.62 25.74 19.8 24.66C20.52 19.8 24.3 16.2 28.8 16.2C30.06 16.2 31.32 16.56 32.4 17.1C32.4 16.74 32.4 16.56 32.4 16.2C32.4 7.2 25.2 0 16.2 0ZM18 16.2C18 17.28 17.28 18 16.2 18H9C7.92 18 7.2 17.28 7.2 16.2C7.2 15.12 7.92 14.4 9 14.4H14.4V5.4C14.4 4.32 15.12 3.6 16.2 3.6C17.28 3.6 18 4.32 18 5.4V16.2Z" fill="#0F5593"/>
<path d="M34.2016 25.2008C33.8416 22.3208 31.8616 19.8008 28.8016 19.8008C25.7416 19.8008 23.7616 22.3208 23.4016 25.2008C23.2216 27.0008 21.6016 32.4008 21.6016 32.4008V34.2008H27.0016C27.0016 35.2808 27.7216 36.0008 28.8016 36.0008C29.8816 36.0008 30.6016 35.2808 30.6016 34.2008H36.0016V32.4008C36.0016 32.4008 34.3816 27.0008 34.2016 25.2008Z" fill="#0F5593"/>
</g>
<defs>
<clipPath id="clip0_5802_1450">
<rect width="36" height="36" fill="white"/>
</clipPath>
</defs>
</svg>
