<svg width="24" height="24" viewBox="0 0 24 24" fill="none" xmlns="http://www.w3.org/2000/svg">
<path d="M12 22C17.5228 22 22 17.5228 22 12C22 6.47715 17.5228 2 12 2C6.47715 2 2 6.47715 2 12C2 17.5228 6.47715 22 12 22Z" fill="#FF2147"/>
<path d="M12.0007 14C11.6386 14 11.2905 13.8598 11.0293 13.6089C10.7682 13.358 10.6143 13.0158 10.5999 12.6539L10.4151 7.98828C10.4077 7.79969 10.4385 7.61154 10.5055 7.43512C10.5726 7.2587 10.6746 7.09763 10.8054 6.96157C10.9362 6.82552 11.0931 6.71727 11.2668 6.64333C11.4404 6.56938 11.6272 6.53126 11.8159 6.53125H12.1855C12.3742 6.53126 12.561 6.56938 12.7346 6.64333C12.9083 6.71727 13.0652 6.82552 13.196 6.96157C13.3268 7.09763 13.4288 7.2587 13.4959 7.43512C13.5629 7.61154 13.5937 7.79969 13.5862 7.98828L13.4015 12.6539C13.387 13.0158 13.2332 13.358 12.972 13.6089C12.7109 13.8598 12.3628 14 12.0007 14Z" fill="white"/>
<path d="M13.4008 16.0676C13.4008 15.2946 12.7742 14.668 12.0012 14.668C11.2282 14.668 10.6016 15.2946 10.6016 16.0676C10.6016 16.8406 11.2282 17.4672 12.0012 17.4672C12.7742 17.4672 13.4008 16.8406 13.4008 16.0676Z" fill="white"/>
</svg>
