<svg width="48" height="48" viewBox="0 0 48 48" fill="none" xmlns="http://www.w3.org/2000/svg">
<path fill-rule="evenodd" clip-rule="evenodd" d="M43.9496 14.0985H39.4657V12.3044C39.4657 11.0715 40.4747 10.0625 41.7076 10.0625C42.9405 10.0625 43.9496 11.0715 43.9496 12.3044V14.0985Z" fill="#CDDBCB"/>
<path fill-rule="evenodd" clip-rule="evenodd" d="M39.4657 29.8008H43.9496V29.8366C43.9496 29.8366 42.8414 32.38 42.2187 33.8093C42.145 33.9784 41.9795 34.0888 41.7951 34.0919C41.6107 34.0949 41.4415 33.9901 41.3624 33.8235C40.6837 32.3969 39.4657 29.8366 39.4657 29.8366V29.8008Z" fill="#CDDBCB"/>
<path fill-rule="evenodd" clip-rule="evenodd" d="M28.0623 6.73828H35.3447C36.2205 6.73828 36.933 7.45075 36.933 8.32661V44.9985C36.933 45.8743 36.2205 46.5868 35.3447 46.5868H5.62935C4.75631 46.5868 4.04102 45.8743 4.04102 44.9985V8.32661C4.04102 7.45075 4.75349 6.73828 5.62935 6.73828H12.9145V9.33527L9.86031 9.33574C8.51763 9.25527 7.37909 10.331 7.37909 11.6737V38.1137H6.5085C6.24855 38.1137 6.03791 38.3244 6.03791 38.5843V40.3425C6.03791 41.5774 7.10182 42.5713 8.37975 42.5713H31.2532C32.5409 42.5713 33.595 41.5172 33.595 40.2295L33.5546 9.80219C33.5543 9.54252 33.3437 9.33216 33.0839 9.33226L28.0623 9.33301V6.73828Z" fill="#CDDBCB"/>
<path fill-rule="evenodd" clip-rule="evenodd" d="M13.9194 16.4668C14.0442 16.4668 14.1638 16.5164 14.2521 16.6047C14.3403 16.6929 14.3899 16.8126 14.3899 16.9374V19.091C14.3899 19.2158 14.3403 19.3355 14.2521 19.4237C14.1638 19.512 14.0442 19.5616 13.9194 19.5616H11.7658C11.641 19.5616 11.5212 19.512 11.433 19.4237C11.3448 19.3355 11.2952 19.2158 11.2952 19.091V16.9374C11.2952 16.8126 11.3448 16.6929 11.433 16.6047C11.5212 16.5164 11.641 16.4668 11.7658 16.4668H13.9194Z" fill="#CDDBCB"/>
<path fill-rule="evenodd" clip-rule="evenodd" d="M13.9194 23.5312C14.0442 23.5312 14.1638 23.5808 14.2521 23.669C14.3403 23.7573 14.3899 23.877 14.3899 24.0018V26.1553C14.3899 26.2801 14.3403 26.3999 14.2521 26.4881C14.1638 26.5764 14.0442 26.6259 13.9194 26.6259H11.7658C11.641 26.6259 11.5212 26.5764 11.433 26.4881C11.3448 26.3999 11.2952 26.2801 11.2952 26.1553V24.0018C11.2952 23.877 11.3448 23.7573 11.433 23.669C11.5212 23.5808 11.641 23.5312 11.7658 23.5312H13.9194Z" fill="#CDDBCB"/>
<path fill-rule="evenodd" clip-rule="evenodd" d="M13.9194 30.5957C14.0442 30.5957 14.1638 30.6453 14.2521 30.7336C14.3403 30.8218 14.3899 30.9415 14.3899 31.0663V33.2199C14.3899 33.3447 14.3403 33.4644 14.2521 33.5526C14.1638 33.6409 14.0442 33.6905 13.9194 33.6905H11.7658C11.641 33.6905 11.5212 33.6409 11.433 33.5526C11.3448 33.4644 11.2952 33.3447 11.2952 33.2199V31.0663C11.2952 30.9415 11.3448 30.8218 11.433 30.7336C11.5212 30.6453 11.641 30.5957 11.7658 30.5957H13.9194Z" fill="#CDDBCB"/>
<path fill-rule="evenodd" clip-rule="evenodd" d="M28.7217 6.07995H35.3454C36.5844 6.07995 37.5924 7.08805 37.5924 8.32711V44.999C37.5924 46.2381 36.5844 47.2461 35.3454 47.2461H5.62997C4.39486 47.2461 3.38281 46.2381 3.38281 44.999V8.32711C3.38281 7.08805 4.39081 6.07995 5.62997 6.07995H12.2563V4.80419C12.2563 4.44033 12.5513 4.14536 12.9151 4.14536H16.4914C16.8057 2.21944 18.4752 0.751953 20.4877 0.751953C22.4999 0.751953 24.1718 2.21953 24.4866 4.14536H28.0629C28.4268 4.14536 28.7217 4.44033 28.7217 4.80419V6.07995ZM12.2563 7.3976H5.62997C5.1174 7.3976 4.70046 7.81454 4.70046 8.32711V44.999C4.70046 45.5115 5.11909 45.9284 5.62997 45.9284H35.3454C35.8578 45.9284 36.2748 45.5115 36.2748 44.999V8.32711C36.2748 7.81454 35.8578 7.3976 35.3454 7.3976H28.7217V8.67459L33.5546 8.67384C33.9181 8.67384 34.213 8.96824 34.2135 9.33181L34.2544 40.2291V40.23C34.2544 41.88 32.9038 43.2306 31.2538 43.2306H8.38037C6.73425 43.2306 5.37971 41.9338 5.37971 40.343V38.1142C5.37971 37.7504 5.67467 37.4554 6.03853 37.4554H6.72088V11.6742C6.72088 9.96052 8.16841 8.58631 9.87938 8.67741L12.2563 8.67704V7.3976ZM27.4041 10.4042V5.46301H23.8811C23.5172 5.46301 23.2222 5.16805 23.2222 4.80419C23.2222 3.29275 21.9967 2.0696 20.4877 2.0696C18.9787 2.0696 17.7559 3.29294 17.7559 4.80419C17.7559 5.16805 17.4609 5.46301 17.0971 5.46301H13.574V10.4042H27.4041ZM28.7217 9.99224V11.063C28.7217 11.4269 28.4268 11.7218 28.0629 11.7218H12.9151C12.5513 11.7218 12.2563 11.4269 12.2563 11.063V9.99468L9.86102 9.99506C9.84785 9.99506 9.83467 9.99468 9.8215 9.99393C8.8566 9.93605 8.03853 10.7092 8.03853 11.6742V37.4554H29.1081C29.4719 37.4554 29.7669 37.7504 29.7669 38.1142C29.7669 38.1142 29.7669 40.3279 29.767 40.3295C29.8056 41.0906 30.3508 41.913 31.2538 41.913C32.1791 41.913 32.9367 41.1555 32.9368 40.2302L32.8967 9.99158L28.7217 9.99224ZM8.38037 41.913H28.9364C28.6426 41.4468 28.4725 40.9051 28.4498 40.3709C28.4494 40.3616 28.4493 40.3523 28.4493 40.343V38.773H6.69735V40.343C6.69735 41.2222 7.47062 41.913 8.38037 41.913ZM20.4877 5.69689C19.9949 5.69689 19.595 5.29699 19.595 4.80419C19.595 4.31139 19.9949 3.90866 20.4877 3.90866C20.9805 3.90866 21.3832 4.31139 21.3832 4.80419C21.3832 5.29699 20.9805 5.69689 20.4877 5.69689ZM16.9237 20.2215C16.5601 20.2215 16.2649 19.9263 16.2649 19.5627C16.2649 19.199 16.5601 18.9039 16.9237 18.9039H29.6792C30.0428 18.9039 30.338 19.199 30.338 19.5627C30.338 19.9263 30.0428 20.2215 29.6792 20.2215H16.9237ZM15.0497 16.4679V19.5627C15.0497 19.9265 14.7548 20.2215 14.3909 20.2215H11.2961C10.9323 20.2215 10.6373 19.9265 10.6373 19.5627V16.4679C10.6373 16.104 10.9323 15.8091 11.2961 15.8091H14.3909C14.7548 15.8091 15.0497 16.104 15.0497 16.4679ZM13.7321 17.1267H11.955V18.9039H13.7321V17.1267ZM16.9237 34.3494C16.5601 34.3494 16.2649 34.0542 16.2649 33.6906C16.2649 33.3269 16.5601 33.0318 16.9237 33.0318H29.6792C30.0428 33.0318 30.338 33.3269 30.338 33.6906C30.338 34.0542 30.0428 34.3494 29.6792 34.3494H16.9237ZM16.9237 17.3737C16.5601 17.3737 16.2649 17.0784 16.2649 16.7149C16.2649 16.3512 16.5601 16.056 16.9237 16.056H25.9966C26.3602 16.056 26.6555 16.3512 26.6555 16.7149C26.6555 17.0784 26.3602 17.3737 25.9966 17.3737H16.9237ZM15.0497 30.5958V33.6906C15.0497 34.0544 14.7548 34.3494 14.3909 34.3494H11.2961C10.9323 34.3494 10.6373 34.0544 10.6373 33.6906V30.5958C10.6373 30.232 10.9323 29.937 11.2961 29.937H14.3909C14.7548 29.937 15.0497 30.232 15.0497 30.5958ZM13.7321 31.2546H11.955V33.0318H13.7321V31.2546ZM16.9237 24.4376C16.5601 24.4376 16.2649 24.1424 16.2649 23.7788C16.2649 23.4152 16.5601 23.12 16.9237 23.12H25.9966C26.3602 23.12 26.6555 23.4152 26.6555 23.7788C26.6555 24.1424 26.3602 24.4376 25.9966 24.4376H16.9237ZM16.9237 27.2854C16.5601 27.2854 16.2649 26.9903 16.2649 26.6266C16.2649 26.263 16.5601 25.9678 16.9237 25.9678H29.6792C30.0428 25.9678 30.338 26.263 30.338 26.6266C30.338 26.9903 30.0428 27.2854 29.6792 27.2854H16.9237ZM15.0497 23.5319V26.6266C15.0497 26.9904 14.7548 27.2854 14.3909 27.2854H11.2961C10.9323 27.2854 10.6373 26.9904 10.6373 26.6266V23.5319C10.6373 23.168 10.9323 22.8731 11.2961 22.8731H14.3909C14.7548 22.8731 15.0497 23.168 15.0497 23.5319ZM13.7321 24.1907H11.955V25.9678H13.7321V24.1907ZM16.9237 31.5016C16.5601 31.5016 16.2649 31.2064 16.2649 30.8428C16.2649 30.4791 16.5601 30.184 16.9237 30.184H25.9966C26.3602 30.184 26.6555 30.4791 26.6555 30.8428C26.6555 31.2064 26.3602 31.5016 25.9966 31.5016H16.9237ZM44.6092 12.3051V29.8375C44.6092 29.928 44.5904 30.0176 44.5543 30.1007L42.4109 35.0204C42.3078 35.257 42.0759 35.4116 41.8178 35.416C41.5597 35.4202 41.3229 35.2734 41.212 35.0402L38.8716 30.1205C38.8295 30.0321 38.8077 29.9354 38.8077 29.8375V12.3051C38.8077 10.7099 40.1132 9.40438 41.7084 9.40438C43.3036 9.40438 44.6092 10.7099 44.6092 12.3051ZM43.2915 13.4404V12.3051C43.2915 11.4345 42.579 10.722 41.7084 10.722C40.8378 10.722 40.1253 11.4345 40.1253 12.3051V13.4404H43.2915ZM43.2915 29.1428V14.7581H40.1253V29.1428H43.2915ZM40.4924 30.4605L41.7806 33.1682L42.9602 30.4605H40.4924Z" fill="#4D7F46"/>
</svg>
