<svg width="24" height="24" viewBox="0 0 24 24" fill="none" xmlns="http://www.w3.org/2000/svg">
<g clip-path="url(#clip0_5879_4848)">
<path d="M1.41598 10.944C1.89598 6.38399 5.25598 2.68799 9.62398 1.70399L8.87998 1.07999C8.63998 0.863992 8.61598 0.479992 8.83198 0.239992C9.02398 0.0239924 9.35998 -0.0240076 9.62398 0.143992L11.376 1.53599C11.496 1.63199 11.568 1.77599 11.592 1.94399C11.616 2.11199 11.568 2.27999 11.472 2.39999L10.08 4.15199C9.95998 4.29599 9.79198 4.39199 9.59998 4.36799C9.26398 4.36799 8.99998 4.10399 8.99998 3.76799C8.99998 3.62399 9.04798 3.47999 9.11998 3.38399L9.45598 2.97599C5.78398 4.00799 3.04798 7.17599 2.61598 11.064C2.59198 11.376 2.32798 11.592 2.01598 11.592H1.96798C1.63198 11.568 1.39198 11.28 1.41598 10.944ZM10.992 21.384C7.07998 20.976 3.91198 18.192 2.90398 14.496L3.38398 14.88C3.64798 15.096 4.03198 15.048 4.22398 14.784C4.43998 14.52 4.39198 14.136 4.12798 13.944L2.37598 12.528C2.25598 12.432 2.08798 12.384 1.94398 12.408C1.77598 12.432 1.63198 12.504 1.53598 12.624L0.143977 14.376C0.0479769 14.472 0.0239769 14.616 0.0239769 14.76C-2.30577e-05 15.096 0.263977 15.36 0.599977 15.36C0.791977 15.36 0.959977 15.288 1.07998 15.144L1.65598 14.424C2.66398 18.792 6.33598 22.104 10.896 22.584H10.944C11.28 22.608 11.568 22.344 11.568 22.008C11.592 21.696 11.328 21.408 10.992 21.384ZM21.984 12.48C21.648 12.456 21.36 12.696 21.312 13.008C20.904 16.896 18.144 20.064 14.472 21.096L14.88 20.592C15.096 20.328 15.048 19.944 14.784 19.752C14.52 19.536 14.136 19.584 13.944 19.848L12.624 21.504C12.456 21.624 12.36 21.816 12.384 22.008C12.384 22.248 12.552 22.44 12.744 22.536L14.376 23.856C14.472 23.928 14.616 23.976 14.76 23.976C14.952 23.976 15.12 23.904 15.216 23.76C15.432 23.496 15.384 23.112 15.12 22.92L14.424 22.368C18.744 21.336 22.032 17.664 22.512 13.152C22.56 12.792 22.32 12.504 21.984 12.48ZM23.784 8.99999C23.52 8.78399 23.136 8.83199 22.944 9.09599L22.344 9.83999C21.384 5.39999 17.688 1.99199 13.08 1.48799C12.744 1.43999 12.432 1.67999 12.408 2.01599C12.384 2.35199 12.624 2.63999 12.936 2.68799C16.896 3.11999 20.112 5.95199 21.072 9.71999L20.616 9.33599C20.352 9.11999 19.968 9.16799 19.776 9.43199C19.584 9.69599 19.608 10.08 19.872 10.272L21.624 11.664C21.72 11.736 21.864 11.784 22.008 11.784C22.2 11.784 22.368 11.712 22.488 11.568L23.88 9.81599C24.072 9.57599 24.048 9.19199 23.784 8.99999ZM12 18.264C8.51998 18.264 5.68798 15.432 5.68798 11.952C5.68798 8.47199 8.51998 5.63999 12 5.63999C15.48 5.63999 18.312 8.47199 18.312 11.952C18.312 15.456 15.48 18.264 12 18.264ZM13.992 13.344C13.992 12.24 13.104 11.352 12 11.352C11.568 11.352 11.208 10.992 11.208 10.56C11.208 10.128 11.568 9.76799 12 9.76799C12.432 9.76799 12.792 10.128 12.792 10.56C12.792 10.896 13.056 11.16 13.392 11.16C13.728 11.16 13.992 10.896 13.992 10.56C13.992 9.67199 13.44 8.90399 12.6 8.63999V8.54399C12.6 8.20799 12.336 7.94399 12 7.94399C11.664 7.94399 11.4 8.20799 11.4 8.54399V8.63999C10.56 8.90399 9.98398 9.69599 9.98398 10.584C10.008 11.688 10.896 12.576 12 12.552C12.408 12.576 12.72 12.888 12.744 13.296C12.768 13.728 12.432 14.112 12 14.136C11.568 14.136 11.208 13.776 11.208 13.344C11.208 13.008 10.944 12.744 10.608 12.744C10.272 12.744 10.008 13.008 10.008 13.344C10.008 14.208 10.584 14.976 11.4 15.24V15.36C11.4 15.696 11.664 15.96 12 15.96C12.336 15.96 12.6 15.696 12.6 15.36V15.24C13.44 14.976 13.992 14.208 13.992 13.344Z" fill="#4D7F46"/>
</g>
<defs>
<clipPath id="clip0_5879_4848">
<rect width="24" height="24" fill="white"/>
</clipPath>
</defs>
</svg>
