<svg width="72" height="72" viewBox="0 0 72 72" fill="none" xmlns="http://www.w3.org/2000/svg">
<rect width="72" height="72" rx="36" fill="#4D7F46" fill-opacity="0.1"/>
<path d="M48.7285 14.25C46.4239 14.25 44.1194 15.1325 42.3535 16.8984L31.8945 27.35C31.0897 28.1543 30.4781 29.0741 30.04 30.0513C31.2119 29.5236 32.4686 29.25 33.7285 29.25C33.9726 29.25 34.216 29.2641 34.4595 29.2851L44.6035 19.1484C45.7461 18.0058 47.2373 17.4346 48.7285 17.4346C50.2197 17.4346 51.7109 18.0058 52.8535 19.1484C55.1388 21.4337 55.1388 25.1131 52.8535 27.3984L42.3945 37.8501C40.1085 40.1346 36.4298 40.1354 34.1445 37.8501C32.7021 36.4076 32.1723 34.4098 32.5508 32.5576C31.4724 32.7802 30.4436 33.3083 29.6035 34.1484L29.2812 34.4706C29.4515 36.5208 30.3194 38.5249 31.8945 40.1001C35.4263 43.6318 41.1117 43.6307 44.6445 40.1001L55.1035 29.6484C58.6353 26.1167 58.6353 20.4301 55.1035 16.8984C53.3376 15.1325 51.0331 14.25 48.7285 14.25Z" fill="#4D7F46" fill-opacity="0.2"/>
<path d="M33.7332 29.25C31.4286 29.25 29.1241 30.1325 27.3582 31.8984L16.8992 42.3501C13.3664 45.8808 13.3675 51.5684 16.8992 55.1001C20.431 58.6319 26.1164 58.6308 29.6492 55.1001L40.1082 44.6484C40.9128 43.8439 41.5247 42.9245 41.9627 41.9473C40.5637 42.5772 39.0432 42.8353 37.5433 42.7134L27.3992 52.8501C25.1132 55.1346 21.4345 55.1354 19.1492 52.8501C16.864 50.5648 16.8632 46.8846 19.1492 44.6001L29.6082 34.1484C30.7508 33.0058 32.242 32.4346 33.7332 32.4346C35.2244 32.4346 36.7156 33.0058 37.8582 34.1484C39.3007 35.5909 39.8305 37.5887 39.452 39.4409C40.5303 39.2184 41.5589 38.6899 42.3992 37.8501L42.7215 37.5278C42.5514 35.4778 41.6833 33.4735 40.1082 31.8984C38.3423 30.1325 36.0378 29.25 33.7332 29.25Z" fill="#4D7F46" fill-opacity="0.2"/>
<path d="M48.7281 13.5C46.232 13.5 43.7325 14.4599 41.8243 16.3681L32.3848 25.8017C31.5643 26.5046 32.7396 27.6799 33.4424 26.8594L42.8863 17.4258C44.5098 15.8022 46.615 15.0014 48.7281 15.0014C50.8412 15.0014 52.9507 15.8022 54.5743 17.4258C57.8214 20.6729 57.8214 25.871 54.5743 29.1181L44.1167 39.5654C40.8684 42.8117 35.67 42.8125 32.4229 39.5654C31.7755 38.9179 31.2659 38.195 30.879 37.4238C30.4288 36.5263 29.0826 37.2015 29.5328 38.0991C29.9906 39.0115 30.6038 39.8674 31.3653 40.6289C35.1816 44.4452 41.3555 44.4438 45.1729 40.6289L55.6377 30.1758C59.4541 26.3594 59.4541 20.1845 55.6377 16.3681C53.7295 14.4599 51.2242 13.5 48.7281 13.5ZM29.9986 17.2485V22.497C29.9759 23.5195 31.5213 23.5195 31.4986 22.497V17.2485C31.5059 16.8257 31.1626 16.4803 30.701 16.4875C30.2786 16.5343 29.9915 16.8625 29.9986 17.2485ZM48.7281 16.6831C47.0453 16.6831 45.3563 17.3317 44.0713 18.6167L36.4205 26.2617C35.7115 26.9707 36.775 28.0341 37.4839 27.3251L45.1348 19.6786C46.1351 18.6784 47.4284 18.1846 48.7281 18.1846C50.0277 18.1846 51.3269 18.6784 52.3272 19.6786C54.3278 21.6793 54.3278 24.8645 52.3272 26.8652L41.8624 37.3184C39.8609 39.3186 36.6765 39.319 34.6758 37.3184C34.107 36.7496 33.7021 36.0866 33.4585 35.3804C33.152 34.3976 31.6777 34.9048 32.0406 35.8682C32.3565 36.7844 32.8829 37.6494 33.6138 38.3803C36.1837 40.9502 40.3553 40.9492 42.9258 38.3803L53.3833 27.9287C55.9532 25.3588 55.9532 21.1866 53.3833 18.6167C52.0984 17.3317 50.4108 16.6831 48.7281 16.6831ZM20.9898 20.2383C20.3118 20.2326 19.9754 21.0586 20.4639 21.5288L24.9654 26.0287C25.6732 26.7691 26.7683 25.6756 26.0289 24.9668L21.5274 20.4653C21.3862 20.3202 21.1923 20.2383 20.9898 20.2383ZM33.7295 28.4985C31.2311 28.4986 28.7344 29.4533 26.8257 31.3608L16.3682 41.8139C16.366 41.8139 16.3645 41.8139 16.3623 41.8139C12.5459 45.6303 12.5459 51.8052 16.3623 55.6216C18.1958 57.4551 20.5854 58.3619 22.9833 58.4341C22.9888 58.4363 22.9941 58.4369 22.9995 58.4397C23.0864 58.4732 23.1789 58.4899 23.272 58.4896C25.768 58.4896 28.2676 57.5296 30.1758 55.6214L39.6152 46.1879C40.4356 45.485 39.2604 44.3098 38.5576 45.1302L29.1123 54.5639C27.4888 56.1874 25.3851 56.9896 23.272 56.9896C21.1589 56.9896 19.0479 56.1874 17.4243 54.5639C14.1772 51.3167 14.1772 46.1186 17.4243 42.8715L27.8833 32.4242C31.1317 29.1779 36.3286 29.1713 39.5757 32.4185C40.2231 33.0659 40.7341 33.7903 41.1211 34.5616C41.5738 35.4417 42.8968 34.7816 42.4658 33.8907C42.0081 32.9783 41.3948 32.1224 40.6333 31.3609C38.7251 29.4527 36.2279 28.4984 33.7295 28.4985ZM17.2471 31.4999H22.4957C23.4966 31.4999 23.4966 29.9985 22.4957 29.9985H17.209C16.17 30.0493 16.2461 31.5507 17.2471 31.4999ZM33.7295 31.6817C32.0445 31.6818 30.3595 32.325 29.0743 33.6094L18.6153 44.0611C16.0454 46.631 16.0454 50.8032 18.6153 53.3731C19.9002 54.6581 21.5893 55.3052 23.272 55.3052C24.9547 55.3052 26.6423 54.658 27.9273 53.3731L35.5796 45.728C36.2886 45.019 35.2251 43.9555 34.5162 44.6645L26.8653 52.311C25.865 53.3113 24.5717 53.8051 23.272 53.8051C21.9724 53.8051 20.6732 53.3113 19.6729 52.311C17.6723 50.3103 17.6723 47.1251 19.6729 45.1244L30.1363 34.6713C32.1377 32.6711 35.3221 32.6707 37.3228 34.6713C37.8916 35.2401 38.298 35.9031 38.5416 36.6094C38.8325 37.6216 40.3521 37.0984 39.9581 36.1215C39.6421 35.2053 39.1172 34.3402 38.3863 33.6093C37.1013 32.3244 35.4146 31.6816 33.7295 31.6817ZM49.4971 40.4957C48.5191 40.5183 48.5191 41.9739 49.4971 41.9956H54.7457C55.7237 41.9729 55.7237 40.5174 54.7457 40.4957H49.4971ZM46.4913 45.7383C45.8133 45.7326 45.4768 46.5587 45.9654 47.0288L50.4668 51.5303C51.1756 52.2079 52.2074 51.1747 51.5289 50.4668L47.0289 45.9654C46.8877 45.8202 46.6938 45.7383 46.4913 45.7383ZM40.4957 49.4986V54.7471C40.473 55.7695 42.0183 55.7695 41.9957 54.7471V49.4986C42.003 49.0757 41.6597 48.7304 41.198 48.7376C40.7757 48.7843 40.4886 49.1125 40.4957 49.4986Z" fill="#4D7F46"/>
</svg>
