<svg width="72" height="72" viewBox="0 0 72 72" fill="none" xmlns="http://www.w3.org/2000/svg">
<rect width="72" height="72" rx="36" fill="white"/>
<rect x="12" y="12" width="48" height="48" rx="24" fill="#0F5593"/>
<path d="M33.75 26.25C33.75 25.0078 34.7578 24 36 24C37.2422 24 38.25 25.0078 38.25 26.25C38.25 27.4922 37.2422 28.5 36 28.5C34.7578 28.5 33.75 27.4922 33.75 26.25ZM31.5 33C31.5 32.1703 32.1703 31.5 33 31.5H36C36.8297 31.5 37.5 32.1703 37.5 33V45H39C39.8297 45 40.5 45.6703 40.5 46.5C40.5 47.3297 39.8297 48 39 48H33C32.1703 48 31.5 47.3297 31.5 46.5C31.5 45.6703 32.1703 45 33 45H34.5V34.5H33C32.1703 34.5 31.5 33.8297 31.5 33Z" fill="white"/>
</svg>
