<svg width="24" height="24" viewBox="0 0 24 24" fill="none" xmlns="http://www.w3.org/2000/svg">
<path d="M6 17.75C5.80109 17.75 5.61032 17.671 5.46967 17.5303C5.32902 17.3897 5.25 17.1989 5.25 17C5.25 16.8011 5.32902 16.6103 5.46967 16.4697C5.61032 16.329 5.80109 16.25 6 16.25H8.76C8.76 16.17 8.76 16.08 8.76 16C8.75844 14.8701 9.02581 13.7561 9.54 12.75H6C5.80109 12.75 5.61032 12.671 5.46967 12.5303C5.32902 12.3897 5.25 12.1989 5.25 12C5.25 11.8011 5.32902 11.6103 5.46967 11.4697C5.61032 11.329 5.80109 11.25 6 11.25H10.53C11.0503 10.6575 11.6612 10.1512 12.34 9.75H6C5.80109 9.75 5.61032 9.67098 5.46967 9.53033C5.32902 9.38968 5.25 9.19891 5.25 9C5.25 8.80109 5.32902 8.61032 5.46967 8.46967C5.61032 8.32902 5.80109 8.25 6 8.25H13C13.1981 8.25259 13.3874 8.33244 13.5275 8.47253C13.6676 8.61263 13.7474 8.80189 13.75 9C13.75 9 13.75 9.08 13.75 9.12C14.4752 8.87642 15.235 8.75148 16 8.75C16.2498 8.73506 16.5002 8.73506 16.75 8.75V4C16.7474 3.53668 16.5622 3.09309 16.2345 2.76546C15.9069 2.43784 15.4633 2.25263 15 2.25H4C3.53668 2.25263 3.09309 2.43784 2.76546 2.76546C2.43784 3.09309 2.25263 3.53668 2.25 4V19C2.25263 19.4633 2.43784 19.9069 2.76546 20.2345C3.09309 20.5622 3.53668 20.7474 4 20.75H10.54C9.78239 19.8912 9.24374 18.862 8.97 17.75H6ZM6 5.25H13C13.1989 5.25 13.3897 5.32902 13.5303 5.46967C13.671 5.61032 13.75 5.80109 13.75 6C13.75 6.19891 13.671 6.38968 13.5303 6.53033C13.3897 6.67098 13.1989 6.75 13 6.75H6C5.80109 6.75 5.61032 6.67098 5.46967 6.53033C5.32902 6.38968 5.25 6.19891 5.25 6C5.25 5.80109 5.32902 5.61032 5.46967 5.46967C5.61032 5.32902 5.80109 5.25 6 5.25ZM16 10.25C14.8628 10.25 13.7511 10.5872 12.8055 11.219C11.8599 11.8509 11.1229 12.7489 10.6877 13.7996C10.2525 14.8502 10.1386 16.0064 10.3605 17.1218C10.5823 18.2372 11.13 19.2617 11.9341 20.0659C12.7383 20.87 13.7628 21.4177 14.8782 21.6395C15.9936 21.8614 17.1498 21.7475 18.2004 21.3123C19.2511 20.8771 20.1491 20.1401 20.781 19.1945C21.4128 18.2489 21.75 17.1372 21.75 16C21.7474 14.4758 21.1407 13.0148 20.0629 11.9371C18.9852 10.8593 17.5242 10.2526 16 10.25ZM16.6 18.69V19C16.6 19.1591 16.5368 19.3117 16.4243 19.4243C16.3117 19.5368 16.1591 19.6 16 19.6C15.8409 19.6 15.6883 19.5368 15.5757 19.4243C15.4632 19.3117 15.4 19.1591 15.4 19V18.67C15.0804 18.6114 14.7729 18.4999 14.49 18.34C14.405 18.311 14.3275 18.2632 14.2634 18.2003C14.1993 18.1373 14.1501 18.0608 14.1196 17.9763C14.089 17.8918 14.0778 17.8015 14.0868 17.7121C14.0958 17.6227 14.1248 17.5364 14.1716 17.4597C14.2183 17.383 14.2818 17.3178 14.3572 17.2688C14.4325 17.2199 14.5179 17.1886 14.6071 17.1771C14.6962 17.1656 14.7867 17.1743 14.8721 17.2025C14.9574 17.2307 15.0353 17.2777 15.1 17.34C15.3617 17.4904 15.6582 17.5697 15.96 17.57H16.2C16.307 17.57 16.4098 17.5282 16.4864 17.4535C16.563 17.3787 16.6074 17.277 16.61 17.17C16.6104 17.0864 16.5845 17.0048 16.5361 16.9366C16.4876 16.8684 16.4191 16.8172 16.34 16.79L15.26 16.4C14.9472 16.2902 14.6762 16.0859 14.4845 15.8154C14.2929 15.5449 14.1899 15.2215 14.19 14.89C14.1938 14.5347 14.3143 14.1905 14.5329 13.9104C14.7516 13.6303 15.0562 13.4299 15.4 13.34V13C15.4 12.8409 15.4632 12.6883 15.5757 12.5757C15.6883 12.4632 15.8409 12.4 16 12.4C16.1591 12.4 16.3117 12.4632 16.4243 12.5757C16.5368 12.6883 16.6 12.8409 16.6 13V13.33C16.9196 13.3886 17.2271 13.5001 17.51 13.66C17.595 13.689 17.6725 13.7368 17.7366 13.7997C17.8007 13.8627 17.8499 13.9392 17.8804 14.0237C17.911 14.1082 17.9222 14.1985 17.9132 14.2879C17.9042 14.3773 17.8752 14.4636 17.8284 14.5403C17.7817 14.617 17.7182 14.6822 17.6428 14.7312C17.5675 14.7801 17.4821 14.8114 17.3929 14.8229C17.3038 14.8344 17.2133 14.8257 17.1279 14.7975C17.0426 14.7693 16.9647 14.7223 16.9 14.66C16.6383 14.5096 16.3418 14.4303 16.04 14.43H15.8C15.693 14.43 15.5902 14.4718 15.5136 14.5465C15.437 14.6213 15.3926 14.723 15.39 14.83C15.3896 14.9136 15.4155 14.9952 15.4639 15.0634C15.5124 15.1316 15.5809 15.1828 15.66 15.21L16.74 15.6C17.0528 15.7098 17.3238 15.9141 17.5155 16.1846C17.7071 16.4551 17.8101 16.7785 17.81 17.11C17.8128 17.4704 17.6954 17.8215 17.4762 18.1077C17.2571 18.3939 16.9487 18.5988 16.6 18.69Z" fill="#F4B400"/>
</svg>
