<svg width="36" height="6" viewBox="0 0 36 6" fill="none" xmlns="http://www.w3.org/2000/svg">
<path d="M0.5 2.38672C0.223858 2.38672 0 2.61058 0 2.88672C0 3.16286 0.223858 3.38672 0.5 3.38672L0.5 2.88672L0.5 2.38672ZM35.5 2.88672L30.5 -3.26633e-05V5.77347L35.5 2.88672ZM0.5 2.88672L0.5 3.38672L2.6875 3.38672V2.88672V2.38672L0.5 2.38672L0.5 2.88672ZM7.0625 2.88672V3.38672L11.4375 3.38672V2.88672V2.38672L7.0625 2.38672V2.88672ZM15.8125 2.88672V3.38672L20.1875 3.38672V2.88672V2.38672L15.8125 2.38672V2.88672ZM24.5625 2.88672V3.38672L28.9375 3.38672V2.88672V2.38672L24.5625 2.38672V2.88672Z" fill="#0F5593" fill-opacity="0.8"/>
</svg>
