<svg width="36" height="36" viewBox="0 0 36 36" fill="none" xmlns="http://www.w3.org/2000/svg">
<rect width="36" height="36" rx="18" fill="white"/>
<g clip-path="url(#clip0_5802_1648)">
<path d="M21.4316 14.2808C21.2736 14.2808 21.145 14.4093 21.145 14.5673C21.145 14.7253 21.2736 14.8539 21.4316 14.8539C21.5896 14.8539 21.7182 14.7253 21.7182 14.5673C21.7182 14.4093 21.5896 14.2808 21.4316 14.2808Z" fill="#0F5593"/>
<path d="M17.996 15.4585C16.5952 15.4585 15.4556 16.5982 15.4556 17.999C15.4556 19.3998 16.5952 20.5395 17.996 20.5395C19.3969 20.5395 20.5365 19.3998 20.5365 17.999C20.5365 16.5982 19.3969 15.4585 17.996 15.4585Z" fill="#0F5593"/>
<path d="M20.666 12.0981H15.334C13.5497 12.0981 12.0982 13.5497 12.0982 15.334V20.666C12.0982 22.4503 13.5497 23.9018 15.334 23.9018H20.666C22.4503 23.9018 23.9018 22.4503 23.9018 20.666V15.334C23.9018 13.5497 22.4503 12.0981 20.666 12.0981ZM18 21.2375C16.2148 21.2375 14.7625 19.7852 14.7625 18C14.7625 16.2148 16.2148 14.7625 18 14.7625C19.7852 14.7625 21.2375 16.2148 21.2375 18C21.2375 19.7852 19.7852 21.2375 18 21.2375ZM21.4312 15.5525C20.8888 15.5525 20.4475 15.1112 20.4475 14.5689C20.4475 14.0265 20.8888 13.5852 21.4312 13.5852C21.9735 13.5852 22.4148 14.0265 22.4148 14.5688C22.4148 15.1112 21.9735 15.5525 21.4312 15.5525Z" fill="#0F5593"/>
</g>
<defs>
<clipPath id="clip0_5802_1648">
<rect width="11.8037" height="11.8037" fill="white" transform="translate(12.0982 12.0981)"/>
</clipPath>
</defs>
</svg>
