<svg width="36" height="36" viewBox="0 0 36 36" fill="none" xmlns="http://www.w3.org/2000/svg">
<path d="M26.4348 11.8634C26.9973 11.3909 27.6105 10.9353 28.2348 10.5022C29.6663 12.7406 30.4239 15.3434 30.4173 18.0003C30.4222 21.2804 29.2771 24.4585 27.1812 26.9816C25.0853 29.5048 22.1712 31.2134 18.9458 31.8102C15.7204 32.4071 12.3879 31.8544 9.52786 30.2483C6.66784 28.6422 4.46134 26.0843 3.29217 23.0196C2.12299 19.9549 2.06514 16.5774 3.12866 13.4745C4.19218 10.3715 6.30978 7.73959 9.11311 6.03648C11.9164 4.33337 15.2281 3.66685 18.472 4.15286C21.7159 4.63887 24.6868 6.24667 26.868 8.69656C26.2436 9.13531 25.6361 9.59093 25.0623 10.0578C21.4849 12.9493 18.3884 16.3894 15.888 20.2503L11.2473 14.4734C11.0575 14.2512 10.7887 14.1115 10.4977 14.084C10.2067 14.0565 9.91642 14.1433 9.68833 14.326C9.46023 14.5088 9.31222 14.7732 9.27564 15.0632C9.23906 15.3532 9.31677 15.646 9.49233 15.8797L15.1173 22.9222C15.2227 23.0537 15.3562 23.16 15.5081 23.233C15.66 23.306 15.8263 23.344 15.9948 23.3441H16.0905C16.2732 23.3298 16.4497 23.2711 16.6046 23.1731C16.7595 23.075 16.8881 22.9406 16.9792 22.7816C19.4708 18.619 22.6708 14.924 26.4348 11.8634ZM33.4661 6.26656C33.4053 6.13161 33.3185 6.00998 33.2106 5.90864C33.1028 5.80729 32.976 5.72823 32.8375 5.67598C32.699 5.62372 32.5516 5.59931 32.4037 5.60413C32.2558 5.60894 32.1102 5.6429 31.9755 5.70406C30.1872 6.54087 28.4778 7.53675 26.868 8.67969C27.3721 9.24187 27.8275 9.84592 28.2292 10.4853C29.7092 9.43105 31.2812 8.51234 32.9261 7.74031C33.1904 7.61344 33.3947 7.38842 33.4955 7.11316C33.5964 6.8379 33.5858 6.53414 33.4661 6.26656Z" fill="#0F5593"/>
</svg>
