<svg width="24" height="24" viewBox="0 0 24 24" fill="none" xmlns="http://www.w3.org/2000/svg">
<path d="M14.4547 4.97844C14.7397 4.49469 15.2572 4.19844 15.8159 4.19844H15.8984C16.7272 4.19844 17.3984 4.86969 17.3984 5.69844C17.3984 6.52719 16.7272 7.19844 15.8984 7.19844H13.1497L14.4547 4.97844ZM9.54219 4.97844L10.8472 7.19844H8.09844C7.26969 7.19844 6.59844 6.52719 6.59844 5.69844C6.59844 4.86969 7.26969 4.19844 8.09844 4.19844H8.18094C8.73969 4.19844 9.26094 4.49469 9.54219 4.97844ZM12.9022 4.06719L11.9984 5.60469L11.0947 4.06719C10.4872 3.03219 9.37719 2.39844 8.18094 2.39844H8.09844C6.27594 2.39844 4.79844 3.87594 4.79844 5.69844C4.79844 6.23844 4.92969 6.74844 5.15844 7.19844H3.59844C2.93469 7.19844 2.39844 7.73469 2.39844 8.39844V9.59844C2.39844 10.2622 2.93469 10.7984 3.59844 10.7984H20.3984C21.0622 10.7984 21.5984 10.2622 21.5984 9.59844V8.39844C21.5984 7.73469 21.0622 7.19844 20.3984 7.19844H18.8384C19.0672 6.74844 19.1984 6.23844 19.1984 5.69844C19.1984 3.87594 17.7209 2.39844 15.8984 2.39844H15.8159C14.6197 2.39844 13.5097 3.03219 12.9022 4.06344V4.06719ZM20.3984 12.5984H12.8984V20.3984H17.9984C19.3222 20.3984 20.3984 19.3222 20.3984 17.9984V12.5984ZM11.0984 12.5984H3.59844V17.9984C3.59844 19.3222 4.67469 20.3984 5.99844 20.3984H11.0984V12.5984Z" fill="#FF9901"/>
</svg>
