<svg width="48" height="48" viewBox="0 0 48 48" fill="none" xmlns="http://www.w3.org/2000/svg">
<path d="M17.3997 36.5H30.6997V42.7H17.3997V36.5Z" fill="#FEF7E5"/>
<path d="M31.5997 43.7996H16.3997V35.5996H31.6997V43.7996H31.5997ZM18.3997 41.6996H29.5997V37.5996H18.3997V41.6996Z" fill="#F4B400"/>
<path d="M22.3 5.80089C15.7 6.50089 10.3 11.9009 9.59999 18.5009C8.99999 23.6009 11 28.2009 14.5 31.2009C15.9 32.4009 16.9 34.1009 17.2 35.9009C17.3 36.3009 17.3 36.1009 17.3 36.6009H30.6C30.6 36.1009 30.7 36.3009 30.7 35.9009C31 34.1009 32 32.4009 33.4 31.2009C36.5 28.5009 38.4 24.6009 38.4 20.3009C38.5 11.6009 31.1 4.80089 22.3 5.80089Z" fill="#FCEAB7"/>
<path d="M31.6003 37.6002H16.4003V36.6002V36.5002C16.4003 36.4002 16.3003 36.3002 16.3003 36.1002C16.0003 34.5002 15.2003 33.1002 13.9003 32.0002C10.0003 28.6002 8.00031 23.5002 8.60031 18.3002C9.40031 11.2002 15.2003 5.5002 22.2003 4.7002C26.7003 4.2002 31.0003 5.6002 34.3003 8.5002C37.6003 11.4002 39.5003 15.7002 39.5003 20.1002C39.5003 24.6002 37.6003 28.8002 34.2003 31.8002C32.9003 33.0002 32.0003 34.5002 31.8003 36.0002C31.8003 36.2002 31.7003 36.4002 31.7003 36.4002V36.5002V37.6002H31.6003ZM18.2003 35.5002H29.8003C30.2003 33.5002 31.3003 31.7002 32.9003 30.3002C35.8003 27.7002 37.5003 24.0002 37.5003 20.1002C37.5003 16.3002 35.9003 12.6002 33.0003 10.1002C30.1003 7.5002 26.4003 6.3002 22.5003 6.8002C16.4003 7.5002 11.4003 12.4002 10.7003 18.6002C10.2003 23.1002 11.9003 27.5002 15.3003 30.4002C16.8003 31.7002 17.8003 33.6002 18.2003 35.5002Z" fill="#F4B400"/>
<path d="M28 38.5996H33.2V40.5996H28V38.5996Z" fill="#F4B400"/>
<path d="M14.8 38.5996H20V40.5996H14.8V38.5996Z" fill="#F4B400"/>
<path d="M25.2993 46.5008H22.6993C20.5993 46.5008 18.9993 44.8008 18.9993 42.8008H28.9993C28.9993 44.8008 27.2993 46.5008 25.2993 46.5008Z" fill="#FCEAB7"/>
<path d="M25.2997 47.5002H22.6997C20.0997 47.5002 17.8997 45.4002 17.8997 42.7002V41.7002H29.9997V42.7002C29.9997 45.4002 27.8997 47.5002 25.2997 47.5002ZM20.1997 43.8002C20.5997 44.8002 21.5997 45.5002 22.6997 45.5002H25.2997C26.3997 45.5002 27.3997 44.8002 27.7997 43.8002H20.1997Z" fill="#F4B400"/>
<path d="M23 0.5H25V2.6H23V0.5Z" fill="#F4B400"/>
<path d="M41.6001 19.2002H43.7001V21.2002H41.6001V19.2002Z" fill="#F4B400"/>
<path d="M4.30005 19.2002H6.40005V21.2002H4.30005V19.2002Z" fill="#F4B400"/>
<path d="M35.6937 7.0625L37.1787 5.57757L38.5929 6.99179L37.1079 8.47671L35.6937 7.0625Z" fill="#F4B400"/>
<path d="M9.33813 33.333L10.8231 31.8481L12.2373 33.2623L10.7523 34.7472L9.33813 33.333Z" fill="#F4B400"/>
<path d="M35.7229 33.3057L37.1371 31.8915L38.622 33.3764L37.2078 34.7906L35.7229 33.3057Z" fill="#F4B400"/>
<path d="M9.3811 7.01953L10.7953 5.60532L12.2802 7.09024L10.866 8.50446L9.3811 7.01953Z" fill="#F4B400"/>
<path d="M29.9047 3.56152L30.7192 1.62593L32.5626 2.40169L31.7481 4.33728L29.9047 3.56152Z" fill="#F4B400"/>
<path d="M39.8724 27.918L40.6482 26.0745L42.5838 26.8891L41.808 28.7325L39.8724 27.918Z" fill="#F4B400"/>
<path d="M5.44824 13.499L6.224 11.6556L8.15959 12.4701L7.38383 14.3136L5.44824 13.499Z" fill="#F4B400"/>
<path d="M39.8871 12.5771L41.8313 11.7835L42.5872 13.6352L40.6429 14.4288L39.8871 12.5771Z" fill="#F4B400"/>
<path d="M5.39087 26.6738L7.33512 25.8802L8.09098 27.7318L6.14673 28.5255L5.39087 26.6738Z" fill="#F4B400"/>
<path d="M15.5901 2.37305L17.4418 1.61718L18.2354 3.56143L16.3837 4.3173L15.5901 2.37305Z" fill="#F4B400"/>
<path d="M14.5 20.2002H12.5C12.5 13.9002 17.7 8.7002 24 8.7002V10.7002C18.8 10.7002 14.5 15.0002 14.5 20.2002Z" fill="#F4B400"/>
</svg>
