<svg width="24" height="24" viewBox="0 0 24 24" fill="none" xmlns="http://www.w3.org/2000/svg">
<path d="M11.8573 11.6489C13.128 11.6489 14.2284 11.1932 15.1274 10.294C16.0265 9.39492 16.4822 8.29488 16.4822 7.02402C16.4822 5.7536 16.0265 4.65341 15.1273 3.75407C14.2281 2.85517 13.1279 2.39941 11.8573 2.39941C10.5865 2.39941 9.48642 2.85517 8.58737 3.75422C7.68832 4.65327 7.23242 5.75346 7.23242 7.02402C7.23242 8.29488 7.68832 9.39507 8.58752 10.2941C9.48671 11.193 10.5869 11.6489 11.8573 11.6489Z" fill="#B02A1E"/>
<path d="M19.9519 17.1638C19.926 16.7896 19.8735 16.3815 19.7963 15.9505C19.7184 15.5163 19.618 15.1058 19.4979 14.7306C19.3738 14.3429 19.205 13.9599 18.9964 13.5929C18.7799 13.212 18.5256 12.8804 18.2402 12.6075C17.9418 12.3219 17.5764 12.0924 17.1539 11.9249C16.7329 11.7584 16.2663 11.674 15.7672 11.674C15.5712 11.674 15.3816 11.7544 15.0155 11.9928C14.7902 12.1397 14.5267 12.3096 14.2325 12.4976C13.981 12.6578 13.6402 12.808 13.2193 12.944C12.8087 13.0768 12.3918 13.1442 11.9803 13.1442C11.5688 13.1442 11.152 13.0768 10.7409 12.944C10.3205 12.8082 9.9797 12.658 9.72846 12.4977C9.43708 12.3115 9.17339 12.1416 8.94471 11.9926C8.57905 11.7543 8.38934 11.6738 8.19332 11.6738C7.69406 11.6738 7.22762 11.7584 6.80673 11.9251C6.38453 12.0922 6.01902 12.3218 5.72031 12.6076C5.43508 12.8807 5.18062 13.2122 4.96439 13.5929C4.75593 13.9599 4.58716 14.3427 4.46293 14.7308C4.34295 15.106 4.2426 15.5163 4.16466 15.9505C4.08746 16.3809 4.03502 16.7892 4.00909 17.1642C3.98359 17.5316 3.9707 17.913 3.9707 18.2981C3.9707 19.3004 4.28933 20.1119 4.91766 20.7103C5.53822 21.3009 6.35933 21.6004 7.35785 21.6004H16.6036C17.6021 21.6004 18.4229 21.301 19.0436 20.7103C19.6721 20.1123 19.9907 19.3007 19.9907 18.298C19.9906 17.9111 19.9775 17.5294 19.9519 17.1638Z" fill="#B02A1E"/>
</svg>
