<svg width="36" height="36" viewBox="0 0 36 36" fill="none" xmlns="http://www.w3.org/2000/svg">
<path d="M32.9742 16.3233C32.1461 16.3233 31.4743 15.6515 31.4743 14.8234C31.4743 10.6159 29.8362 6.6619 26.8617 3.68571C26.2753 3.09931 26.2753 2.15147 26.8617 1.5648C27.4481 0.978401 28.3962 0.978401 28.9826 1.5648C32.5243 5.10624 34.4741 9.81498 34.4741 14.8234C34.4741 15.6515 33.8023 16.3233 32.9742 16.3233Z" fill="#0F5593"/>
<path d="M2.97647 16.3233C2.14865 16.3233 1.47656 15.6515 1.47656 14.8234C1.47656 9.81498 3.42664 5.10624 6.96808 1.5648C7.55447 0.978401 8.50259 0.978401 9.08899 1.5648C9.67566 2.15147 9.67566 3.09931 9.08899 3.68571C6.11444 6.66026 4.47665 10.6159 4.47665 14.8234C4.47665 15.6515 3.80457 16.3233 2.97647 16.3233Z" fill="#0F5593"/>
<path d="M32.0453 25.3696C29.7772 23.4525 28.4767 20.6505 28.4767 17.6819V13.5C28.4767 8.22162 24.5556 3.85208 19.4767 3.12012V1.49991C19.4767 0.670441 18.8046 0 17.9767 0C17.1487 0 16.4766 0.670441 16.4766 1.49991V3.12012C11.3962 3.85208 7.47656 8.22162 7.47656 13.5V17.6819C7.47656 20.6505 6.17606 23.4525 3.89474 25.3814C3.3111 25.881 2.97656 26.607 2.97656 27.3749C2.97656 28.8226 4.15402 30.0001 5.60175 30.0001H30.3517C31.7992 30.0001 32.9767 28.8226 32.9767 27.3749C32.9767 26.607 32.6421 25.881 32.0453 25.3696Z" fill="#0F5593"/>
<path d="M17.9798 36C20.6961 36 22.9687 34.0634 23.4908 31.5H12.4688C12.9906 34.0634 15.2631 36 17.9798 36Z" fill="#0F5593"/>
</svg>
