<svg width="24" height="24" viewBox="0 0 24 24" fill="none" xmlns="http://www.w3.org/2000/svg">
<path d="M13.755 14.3664C13.2326 14.7147 12.6257 14.8989 12 14.8989C11.3743 14.8989 10.7675 14.7147 10.245 14.3664L1.63982 8.62945C1.59208 8.59762 1.54557 8.56444 1.5 8.53031V17.931C1.5 19.0088 2.37466 19.8642 3.43319 19.8642H20.5668C21.6446 19.8642 22.5 18.9895 22.5 17.931V8.53027C22.4543 8.56448 22.4077 8.59774 22.3598 8.62961L13.755 14.3664Z" fill="#F4B400"/>
<path d="M2.32236 7.60534L10.9276 13.3424C11.2533 13.5595 11.6266 13.6681 12 13.6681C12.3733 13.6681 12.7467 13.5595 13.0724 13.3424L21.6776 7.60534C22.1926 7.26224 22.5 6.68802 22.5 6.06828C22.5 5.00265 21.6331 4.13574 20.5675 4.13574H3.43253C2.36695 4.13578 1.5 5.00269 1.5 6.0693C1.5 6.68802 1.80745 7.26224 2.32236 7.60534Z" fill="#F4B400"/>
</svg>
